<svg width="403" height="617" viewBox="0 0 403 617" fill="none" xmlns="http://www.w3.org/2000/svg">
<path fill-rule="evenodd" clip-rule="evenodd" d="M402.691 123.337C402.691 178.115 366.69 224.485 317.057 240.078C315.948 238.19 314.801 236.326 313.618 234.488L310.255 236.654L306.892 238.819C307.63 239.967 308.354 241.125 309.063 242.293C299.852 244.508 290.236 245.682 280.345 245.682C212.776 245.682 158 190.906 158 123.337C158 55.7671 212.776 0.991211 280.345 0.991211C347.915 0.991211 402.691 55.7671 402.691 123.337ZM309.063 242.293C310.853 245.244 312.545 248.262 314.136 251.34L317.689 249.504L321.243 247.668C319.915 245.097 318.519 242.566 317.057 240.078C314.43 240.904 311.764 241.643 309.063 242.293ZM212 66.0001C212 67.6424 211.935 69.2696 211.808 70.8792L207.82 70.5636L203.833 70.2481C203.943 68.8482 204 67.4316 204 66.0001C204 64.5686 203.943 63.1519 203.833 61.7521L207.82 61.4365L211.808 61.1209C211.935 62.7305 212 64.3577 212 66.0001ZM205.251 83.5424L209.057 84.7722C208.049 87.8917 206.797 90.9013 205.322 93.7785L201.763 91.9545L198.203 90.1304C199.483 87.6319 200.57 85.0195 201.444 82.3126L205.251 83.5424ZM194.399 102.955L197.444 105.549C195.332 108.026 193.026 110.332 190.549 112.444L187.954 109.399L185.36 106.355C187.514 104.519 189.519 102.514 191.355 100.36L194.399 102.955ZM176.954 116.763L178.778 120.323C175.901 121.797 172.892 123.049 169.772 124.057L168.542 120.251L167.312 116.445C170.019 115.57 172.632 114.483 175.13 113.203L176.954 116.763ZM155.564 122.82L155.879 126.808C154.27 126.935 152.642 127 151 127C149.358 127 147.73 126.935 146.121 126.808L146.436 122.82L146.752 118.833C148.152 118.943 149.569 119 151 119C152.431 119 153.848 118.943 155.248 118.833L155.564 122.82ZM133.458 120.251L132.228 124.057C129.108 123.049 126.099 121.797 123.222 120.323L125.046 116.763L126.87 113.203C129.368 114.483 131.981 115.57 134.688 116.445L133.458 120.251ZM114.046 109.399L111.451 112.444C108.974 110.332 106.668 108.026 104.556 105.549L107.601 102.955L110.645 100.36C112.481 102.514 114.486 104.519 116.64 106.355L114.046 109.399ZM100.237 91.9545L96.6775 93.7785C95.2033 90.9013 93.9509 87.8917 92.943 84.7722L96.7493 83.5424L100.556 82.3126C101.43 85.0195 102.517 87.6319 103.797 90.1304L100.237 91.9545ZM90 66.0001C90 67.6424 90.0649 69.2696 90.1923 70.8792L94.1798 70.5636L98.1674 70.2481C98.0566 68.8482 98 67.4316 98 66.0001C98 64.5686 98.0566 63.1519 98.1674 61.7521L94.1798 61.4365L90.1923 61.1209C90.0649 62.7305 90 64.3577 90 66.0001ZM96.7493 48.4578L92.943 47.228C93.9509 44.1084 95.2033 41.0988 96.6775 38.2216L100.237 40.0457L103.797 41.8697C102.517 44.3682 101.43 46.9806 100.556 49.6876L96.7493 48.4578ZM107.601 29.0456L104.556 26.4508C106.668 23.9738 108.974 21.6679 111.451 19.5566L114.046 22.6007L116.64 25.6449C114.486 27.4809 112.481 29.4864 110.645 31.6404L107.601 29.0456ZM125.046 15.2375L123.222 11.6776C126.099 10.2033 129.108 8.95098 132.228 7.94306L133.458 11.7493L134.688 15.5556C131.981 16.4302 129.368 17.5172 126.87 18.7974L125.046 15.2375ZM146.436 9.17988L146.121 5.19235C147.73 5.06497 149.358 5.00006 151 5.00006C152.642 5.00006 154.27 5.06497 155.879 5.19235L155.564 9.17988L155.248 13.1674C153.848 13.0566 152.431 13.0001 151 13.0001C149.569 13.0001 148.152 13.0566 146.752 13.1674L146.436 9.17988ZM168.542 11.7493L169.772 7.94306C172.892 8.95098 175.901 10.2033 178.778 11.6776L176.954 15.2375L175.13 18.7974C172.632 17.5172 170.019 16.4302 167.312 15.5556L168.542 11.7493ZM187.954 22.6007L190.549 19.5566C193.026 21.6679 195.332 23.9738 197.444 26.4508L194.399 29.0456L191.355 31.6404C189.519 29.4864 187.514 27.4809 185.36 25.6449L187.954 22.6007ZM201.763 40.0457L205.322 38.2216C206.797 41.0988 208.049 44.1084 209.057 47.228L205.251 48.4578L201.444 49.6876C200.57 46.9806 199.483 44.3682 198.203 41.8697L201.763 40.0457ZM334.826 328.43L338.822 328.618C338.94 326.093 339 323.554 339 321C339 318.446 338.94 315.907 338.822 313.383L334.826 313.57L330.831 313.757C330.943 316.157 331 318.571 331 321C331 323.429 330.943 325.843 330.831 328.243L334.826 328.43ZM331.465 287.822L335.375 286.976C334.293 281.982 332.979 277.075 331.443 272.266L327.632 273.483L323.822 274.7C325.28 279.266 326.529 283.926 327.556 288.669L331.465 287.822ZM294.435 216.066L297.394 213.374C293.976 209.617 290.383 206.024 286.626 202.606L283.934 205.565L281.243 208.524C284.813 211.772 288.228 215.187 291.476 218.757L294.435 216.066ZM263.346 189.745L265.512 186.382C261.253 183.64 256.855 181.094 252.332 178.757L250.496 182.311L248.66 185.864C252.957 188.084 257.134 190.503 261.181 193.108L263.346 189.745ZM226.517 172.368L227.734 168.557C222.925 167.021 218.018 165.707 213.024 164.625L212.178 168.535L211.331 172.444C216.074 173.471 220.734 174.72 225.3 176.178L226.517 172.368ZM186.43 165.174L186.617 161.178C184.093 161.06 181.554 161 179 161C176.446 161 173.907 161.06 171.383 161.178L171.57 165.174L171.757 169.169C174.157 169.057 176.571 169 179 169C181.429 169 183.843 169.057 186.243 169.169L186.43 165.174ZM145.822 168.535L144.976 164.625C139.982 165.707 135.074 167.021 130.266 168.557L131.483 172.368L132.7 176.178C137.266 174.72 141.926 173.471 146.669 172.444L145.822 168.535ZM107.504 182.311L105.668 178.757C101.145 181.094 96.7471 183.64 92.488 186.382L94.6537 189.745L96.8194 193.108C100.866 190.503 105.043 188.084 109.34 185.864L107.504 182.311ZM74.0658 205.565L71.3743 202.606C67.6173 206.024 64.0236 209.617 60.6063 213.374L63.5653 216.066L66.5243 218.757C69.7718 215.187 73.187 211.772 76.7573 208.524L74.0658 205.565ZM36.7567 247.668C39.0935 243.145 41.6396 238.747 44.3824 234.488L47.7454 236.654L51.1084 238.819C48.5026 242.866 46.0839 247.043 43.8644 251.34L40.3106 249.504L36.7567 247.668ZM30.3676 273.483L26.5573 272.266C25.0214 277.075 23.7067 281.982 22.6252 286.976L26.5346 287.822L30.4439 288.669C31.4711 283.926 32.7195 279.266 34.178 274.7L30.3676 273.483ZM19 321C19 318.446 19.0598 315.907 19.1781 313.383L23.1738 313.57L27.1694 313.757C27.0569 316.157 27 318.571 27 321C27 323.429 27.0569 325.843 27.1694 328.243L23.1738 328.43L19.1781 328.618C19.0598 326.093 19 323.554 19 321ZM26.5346 354.178L22.6252 355.024C23.7067 360.018 25.0214 364.926 26.5573 369.734L30.3676 368.517L34.178 367.3C32.7195 362.734 31.4711 358.074 30.444 353.331L26.5346 354.178ZM40.3106 392.496L36.7568 394.332C39.0935 398.855 41.6397 403.253 44.3824 407.512L47.7454 405.346L51.1084 403.181C48.5026 399.134 46.0839 394.957 43.8644 390.66L40.3106 392.496ZM63.5653 425.934L60.6063 428.626C64.0236 432.383 67.6173 435.976 71.3743 439.394L74.0658 436.435L76.7573 433.476C73.187 430.228 69.7719 426.813 66.5244 423.243L63.5653 425.934ZM94.6537 452.255L92.488 455.618C96.7471 458.36 101.145 460.907 105.668 463.243L107.504 459.689L109.34 456.136C105.043 453.916 100.866 451.497 96.8194 448.892L94.6537 452.255ZM131.483 469.632L130.266 473.443C135.075 474.979 139.982 476.293 144.976 477.375L145.822 473.465L146.669 469.556C141.926 468.529 137.266 467.281 132.7 465.822L131.483 469.632ZM171.57 476.826L171.383 480.822C173.907 480.94 176.446 481 179 481C181.554 481 184.093 480.94 186.617 480.822L186.43 476.826L186.243 472.831C183.843 472.943 181.429 473 179 473C176.571 473 174.157 472.943 171.757 472.831L171.57 476.826ZM212.178 473.465L213.024 477.375C218.018 476.293 222.926 474.979 227.734 473.443L226.517 469.632L225.3 465.822C220.734 467.281 216.074 468.529 211.331 469.556L212.178 473.465ZM250.496 459.689L252.332 463.243C256.855 460.907 261.253 458.36 265.512 455.618L263.346 452.255L261.181 448.892C257.134 451.497 252.957 453.916 248.66 456.136L250.496 459.689ZM283.934 436.435L286.626 439.394C290.383 435.976 293.976 432.383 297.394 428.626L294.435 425.934L291.476 423.243C288.228 426.813 284.813 430.228 281.243 433.476L283.934 436.435ZM310.255 405.346L313.618 407.512C316.36 403.253 318.907 398.855 321.243 394.332L317.689 392.496L314.136 390.66C311.916 394.957 309.497 399.134 306.892 403.181L310.255 405.346ZM327.632 368.517L331.443 369.734C332.979 364.926 334.293 360.018 335.375 355.024L331.465 354.178L327.556 353.331C326.529 358.074 325.28 362.734 323.822 367.3L327.632 368.517ZM43.5 617C67.5244 617 87 597.524 87 573.5C87 549.476 67.5244 530 43.5 530C19.4756 530 0 549.476 0 573.5C0 597.524 19.4756 617 43.5 617Z" fill="white"/>
</svg>
