<svg width="44" height="44" viewBox="0 0 44 44" fill="none" xmlns="http://www.w3.org/2000/svg">
<g clip-path="url(#clip0_2208_1279)">
<path d="M3.09088 30.4775C3.35439 31.0575 3.64863 31.6332 3.96923 32.1847L2.86036 32.8173C2.67884 32.5021 2.50466 32.1811 2.33777 31.8542V31.8411L2.32458 31.8148V31.8017V31.7886C2.22357 31.5828 2.12469 31.3749 2.03027 31.167L3.09088 30.4775ZM0.104492 24.4016V24.4169V24.4585V24.476V24.4913V24.5067V24.5395C0.152801 24.9335 0.214354 25.3231 0.284621 25.7083V25.7258V25.7542C0.308776 25.8899 0.337348 26.0278 0.365894 26.1635L1.61533 25.9053C1.48577 25.2837 1.38468 24.6446 1.31222 24.0098L0.104492 24.4016ZM3.93631 11.7792L2.82745 11.1489C2.77694 11.2342 2.72854 11.3218 2.68023 11.4093C2.44747 11.8354 2.22789 12.2731 2.02147 12.7226V12.7357L1.98856 12.8123L3.15243 13.3354C3.3281 12.9196 3.62011 12.333 3.93631 11.7792ZM19.6103 1.46813L19.4676 0.203057H19.046H19.0109H18.967H18.9231H18.8879H18.8177C18.3595 0.268719 17.9064 0.347503 17.4584 0.43943L17.7175 1.68701C18.3323 1.64104 18.9735 1.53817 19.6103 1.46813ZM13.3697 3.17753L12.8427 2.01751L12.6583 2.10287H12.5572L12.5287 2.116H12.5067H12.4914C12.0127 2.34509 11.5442 2.59022 11.086 2.85141L11.7228 3.95671C12.2125 3.7269 12.79 3.44018 13.3785 3.17753H13.3697ZM1.65918 17.8135L0.407602 17.5597C0.396623 17.6078 0.387758 17.656 0.378975 17.7063V17.7194V17.7457C0.304315 18.1294 0.239929 18.5147 0.185765 18.9013V18.9145V18.9407C0.163806 19.0939 0.146291 19.2472 0.128724 19.4004L1.40014 19.5383C1.43088 19.0764 1.53182 18.4373 1.65918 17.8135ZM11.086 40.9878C11.1958 41.0512 11.3056 41.1125 11.4198 41.1738H11.4462H11.4615H11.4747C11.9402 41.4233 12.4145 41.6568 12.8976 41.8742L13.4225 40.7142C12.8406 40.4515 12.263 40.1604 11.7075 39.8387L11.086 40.9878ZM9.61478 21.9459C9.61884 25.1988 10.9172 28.3174 13.2249 30.6176C15.5326 32.9178 18.6612 34.2118 21.9248 34.2159V9.68243C18.661 9.68591 15.532 10.9797 13.2242 13.2801C10.9164 15.5804 9.61826 18.6993 9.61478 21.9524V21.9459ZM7.97228 6.72765L7.11152 5.78868C6.81874 6.04841 6.53917 6.31689 6.27274 6.59413L6.25076 6.61383C6.1234 6.74515 5.99819 6.88086 5.87302 7.01656L6.81945 7.87235C7.04562 7.62065 7.50236 7.1632 7.97228 6.73421V6.72765ZM21.9248 0.0585938V9.67586C25.1904 9.67818 28.3216 10.9724 30.6306 13.2743C32.9396 15.5761 34.2374 18.6974 34.2392 21.9524C34.2351 25.2058 32.9366 28.3247 30.6285 30.6249C28.3203 32.9252 25.191 34.2189 21.927 34.2224V43.8397C27.7489 43.8333 33.3303 41.5253 37.447 37.422C41.5636 33.3187 43.8792 27.7553 43.8856 21.9524C43.8792 16.1491 41.5634 10.5854 37.4462 6.48206C33.3291 2.37872 27.747 0.0709598 21.9248 0.0651663V0.0585938ZM6.65701 35.8508L5.71498 36.711C6.17611 37.2115 6.65843 37.6908 7.16202 38.149L8.02063 37.2057C7.54852 36.7767 7.0896 36.3389 6.65701 35.8574V35.8508ZM17.5177 43.3932C17.8032 43.4523 18.093 43.5048 18.3829 43.5508H18.451H18.5366C18.8682 43.6011 19.1954 43.6449 19.5357 43.6821L19.674 42.4148C19.0394 42.347 18.3983 42.2463 17.7746 42.1193L17.5177 43.3932ZM37.5418 3.5321H37.8689V2.01093H38.6001V1.73734H36.8105V2.01093H37.5418V3.5321ZM39.2216 2.18604L39.9287 3.5321H40.1856L40.897 2.19041V3.5321H41.2023V1.73734H40.8268L40.056 3.18191L39.2809 1.73734H38.9075V3.5321H39.215L39.2216 2.18604Z" fill="black"/>
</g>
<defs>
<clipPath id="clip0_2208_1279">
<rect width="44" height="44" fill="white"/>
</clipPath>
</defs>
</svg>
