<svg xmlns="http://www.w3.org/2000/svg" viewBox="0 0 600 340" width="600" height="340" preserveAspectRatio="xMidYMid meet" style="width: 100%; height: 100%; transform: translate3d(0px, 0px, 0px);">
    <defs>
        <clipPath id="__lottie_element_60">
        <rect width="600" height="340" x="0" y="0"></rect>
        </clipPath>
    </defs>
    <g clip-path="url(#__lottie_element_60)">
        <g transform="matrix(3.890000104904175,0,0,3.890000104904175,1400.446044921875,737.5160522460938)" opacity="1" style="display: block;">
        <g opacity="1" transform="matrix(1,0,0,1,-282.8909912109375,-145.89100646972656)">
            <path fill="rgb(0,0,0)" fill-opacity="0" d=" M0,-20.109500885009766 C11.098433494567871,-20.109500885009766 20.109500885009766,-11.098433494567871 20.109500885009766,0 C20.109500885009766,11.098433494567871 11.098433494567871,20.109500885009766 0,20.109500885009766 C-11.098433494567871,20.109500885009766 -20.109500885009766,11.098433494567871 -20.109500885009766,0 C-20.109500885009766,-11.098433494567871 -11.098433494567871,-20.109500885009766 0,-20.109500885009766z"></path>
            <path stroke-linecap="butt" stroke-linejoin="miter" fill-opacity="0" stroke-miterlimit="4" stroke="rgb(0,0,0)" stroke-opacity="1" stroke-width="0" d=" M0,-20.109500885009766 C11.098433494567871,-20.109500885009766 20.109500885009766,-11.098433494567871 20.109500885009766,0 C20.109500885009766,11.098433494567871 11.098433494567871,20.109500885009766 0,20.109500885009766 C-11.098433494567871,20.109500885009766 -20.109500885009766,11.098433494567871 -20.109500885009766,0 C-20.109500885009766,-11.098433494567871 -11.098433494567871,-20.109500885009766 0,-20.109500885009766z"></path>
        </g>
        </g>
        <g transform="matrix(3.890000104904175,0,0,3.890000104904175,1400.446044921875,737.5160522460938)" opacity="1" style="display: block;">
        <g opacity="1" transform="matrix(1,0,0,1,-282.8909912109375,-145.89100646972656)">
            <path fill="rgb(0,0,0)" fill-opacity="0" d=" M0,-20.109500885009766 C11.098433494567871,-20.109500885009766 20.109500885009766,-11.098433494567871 20.109500885009766,0 C20.109500885009766,11.098433494567871 11.098433494567871,20.109500885009766 0,20.109500885009766 C-11.098433494567871,20.109500885009766 -20.109500885009766,11.098433494567871 -20.109500885009766,0 C-20.109500885009766,-11.098433494567871 -11.098433494567871,-20.109500885009766 0,-20.109500885009766z"></path>
            <path stroke-linecap="butt" stroke-linejoin="miter" fill-opacity="0" stroke-miterlimit="4" stroke-dasharray=" 2 5" stroke-dashoffset="23.259029388427734" stroke="rgb(0,0,0)" stroke-opacity="1" stroke-width="1" d=" M0,-20.109500885009766 C11.098433494567871,-20.109500885009766 20.109500885009766,-11.098433494567871 20.109500885009766,0 C20.109500885009766,11.098433494567871 11.098433494567871,20.109500885009766 0,20.109500885009766 C-11.098433494567871,20.109500885009766 -20.109500885009766,11.098433494567871 -20.109500885009766,0 C-20.109500885009766,-11.098433494567871 -11.098433494567871,-20.109500885009766 0,-20.109500885009766z"></path>
        </g>
        </g>
        <g transform="matrix(2.740000009536743,0,0,2.740000009536743,1075.121337890625,569.7413330078125)" opacity="1" style="display: block;">
        <g opacity="1" transform="matrix(1,0,0,1,-282.8909912109375,-145.89100646972656)">
            <path fill="rgb(0,0,0)" fill-opacity="1" d=" M0,-20.109500885009766 C11.098433494567871,-20.109500885009766 20.109500885009766,-11.098433494567871 20.109500885009766,0 C20.109500885009766,11.098433494567871 11.098433494567871,20.109500885009766 0,20.109500885009766 C-11.098433494567871,20.109500885009766 -20.109500885009766,11.098433494567871 -20.109500885009766,0 C-20.109500885009766,-11.098433494567871 -11.098433494567871,-20.109500885009766 0,-20.109500885009766z"></path>
            <path stroke-linecap="butt" stroke-linejoin="miter" fill-opacity="0" stroke-miterlimit="4" stroke="rgb(0,0,0)" stroke-opacity="1" stroke-width="0" d=" M0,-20.109500885009766 C11.098433494567871,-20.109500885009766 20.109500885009766,-11.098433494567871 20.109500885009766,0 C20.109500885009766,11.098433494567871 11.098433494567871,20.109500885009766 0,20.109500885009766 C-11.098433494567871,20.109500885009766 -20.109500885009766,11.098433494567871 -20.109500885009766,0 C-20.109500885009766,-11.098433494567871 -11.098433494567871,-20.109500885009766 0,-20.109500885009766z"></path>
        </g>
        </g>
        <g style="display: none;" transform="matrix(1,0,0,1,548,272)" opacity="0.10404800000109447">
        <g opacity="1" transform="matrix(1,0,0,1,-282.8909912109375,-145.89100646972656)">
            <path fill="rgb(0,0,0)" fill-opacity="1" d=" M0,-20.109500885009766 C11.098433494567871,-20.109500885009766 20.109500885009766,-11.098433494567871 20.109500885009766,0 C20.109500885009766,11.098433494567871 11.098433494567871,20.109500885009766 0,20.109500885009766 C-11.098433494567871,20.109500885009766 -20.109500885009766,11.098433494567871 -20.109500885009766,0 C-20.109500885009766,-11.098433494567871 -11.098433494567871,-20.109500885009766 0,-20.109500885009766z"></path>
            <path stroke-linecap="butt" stroke-linejoin="miter" fill-opacity="0" stroke-miterlimit="4" stroke="rgb(0,0,0)" stroke-opacity="0.01" stroke-width="7" d=" M0,-20.109500885009766 C11.098433494567871,-20.109500885009766 20.109500885009766,-11.098433494567871 20.109500885009766,0 C20.109500885009766,11.098433494567871 11.098433494567871,20.109500885009766 0,20.109500885009766 C-11.098433494567871,20.109500885009766 -20.109500885009766,11.098433494567871 -20.109500885009766,0 C-20.109500885009766,-11.098433494567871 -11.098433494567871,-20.109500885009766 0,-20.109500885009766z"></path>
        </g>
        </g>
        <g style="display: none;" transform="matrix(0.6700000166893005,0,0,0.6700000166893005,456.14599609375,246.85597229003906)" opacity="0.03725600000108216">
        <g opacity="1" transform="matrix(1,0,0,1,-282.8909912109375,-145.89100646972656)">
            <path fill="rgb(0,0,0)" fill-opacity="1" d=" M0,-20.109500885009766 C11.098433494567871,-20.109500885009766 20.109500885009766,-11.098433494567871 20.109500885009766,0 C20.109500885009766,11.098433494567871 11.098433494567871,20.109500885009766 0,20.109500885009766 C-11.098433494567871,20.109500885009766 -20.109500885009766,11.098433494567871 -20.109500885009766,0 C-20.109500885009766,-11.098433494567871 -11.098433494567871,-20.109500885009766 0,-20.109500885009766z"></path>
            <path stroke-linecap="butt" stroke-linejoin="miter" fill-opacity="0" stroke-miterlimit="4" stroke="rgb(0,0,0)" stroke-opacity="0.01" stroke-width="7" d=" M0,-20.109500885009766 C11.098433494567871,-20.109500885009766 20.109500885009766,-11.098433494567871 20.109500885009766,0 C20.109500885009766,11.098433494567871 11.098433494567871,20.109500885009766 0,20.109500885009766 C-11.098433494567871,20.109500885009766 -20.109500885009766,11.098433494567871 -20.109500885009766,0 C-20.109500885009766,-11.098433494567871 -11.098433494567871,-20.109500885009766 0,-20.109500885009766z"></path>
        </g>
        </g>
        <g style="display: none;" transform="matrix(0.8799999952316284,0,0,0.8799999952316284,556.0531005859375,353.9930725097656)" opacity="0.031123333334240614">
        <g opacity="1" transform="matrix(1,0,0,1,-282.8909912109375,-145.89100646972656)">
            <path fill="rgb(0,0,0)" fill-opacity="1" d=" M0,-20.109500885009766 C11.098433494567871,-20.109500885009766 20.109500885009766,-11.098433494567871 20.109500885009766,0 C20.109500885009766,11.098433494567871 11.098433494567871,20.109500885009766 0,20.109500885009766 C-11.098433494567871,20.109500885009766 -20.109500885009766,11.098433494567871 -20.109500885009766,0 C-20.109500885009766,-11.098433494567871 -11.098433494567871,-20.109500885009766 0,-20.109500885009766z"></path>
            <path stroke-linecap="butt" stroke-linejoin="miter" fill-opacity="0" stroke-miterlimit="4" stroke="rgb(0,0,0)" stroke-opacity="0.01" stroke-width="7" d=" M0,-20.109500885009766 C11.098433494567871,-20.109500885009766 20.109500885009766,-11.098433494567871 20.109500885009766,0 C20.109500885009766,11.098433494567871 11.098433494567871,20.109500885009766 0,20.109500885009766 C-11.098433494567871,20.109500885009766 -20.109500885009766,11.098433494567871 -20.109500885009766,0 C-20.109500885009766,-11.098433494567871 -11.098433494567871,-20.109500885009766 0,-20.109500885009766z"></path>
        </g>
        </g>
        <g style="display: none;" transform="matrix(1.5199999809265137,0,0,1.5199999809265137,729.9942626953125,391.75433349609375)" opacity="0.10404800000109447">
        <g opacity="1" transform="matrix(1,0,0,1,-282.8909912109375,-145.89100646972656)">
            <path fill="rgb(0,0,0)" fill-opacity="1" d=" M0,-20.109500885009766 C11.098433494567871,-20.109500885009766 20.109500885009766,-11.098433494567871 20.109500885009766,0 C20.109500885009766,11.098433494567871 11.098433494567871,20.109500885009766 0,20.109500885009766 C-11.098433494567871,20.109500885009766 -20.109500885009766,11.098433494567871 -20.109500885009766,0 C-20.109500885009766,-11.098433494567871 -11.098433494567871,-20.109500885009766 0,-20.109500885009766z"></path>
            <path stroke-linecap="butt" stroke-linejoin="miter" fill-opacity="0" stroke-miterlimit="4" stroke="rgb(0,0,0)" stroke-opacity="0.01" stroke-width="7" d=" M0,-20.109500885009766 C11.098433494567871,-20.109500885009766 20.109500885009766,-11.098433494567871 20.109500885009766,0 C20.109500885009766,11.098433494567871 11.098433494567871,20.109500885009766 0,20.109500885009766 C-11.098433494567871,20.109500885009766 -20.109500885009766,11.098433494567871 -20.109500885009766,0 C-20.109500885009766,-11.098433494567871 -11.098433494567871,-20.109500885009766 0,-20.109500885009766z"></path>
        </g>
        </g>
        <g style="display: none;" transform="matrix(1.5199999809265137,0,0,1.5199999809265137,700.9942626953125,423.75433349609375)" opacity="0.031170000000887654">
        <g opacity="1" transform="matrix(1,0,0,1,-282.8909912109375,-145.89100646972656)">
            <path fill="rgb(0,0,0)" fill-opacity="1" d=" M0,-20.109500885009766 C11.098433494567871,-20.109500885009766 20.109500885009766,-11.098433494567871 20.109500885009766,0 C20.109500885009766,11.098433494567871 11.098433494567871,20.109500885009766 0,20.109500885009766 C-11.098433494567871,20.109500885009766 -20.109500885009766,11.098433494567871 -20.109500885009766,0 C-20.109500885009766,-11.098433494567871 -11.098433494567871,-20.109500885009766 0,-20.109500885009766z"></path>
            <path stroke-linecap="butt" stroke-linejoin="miter" fill-opacity="0" stroke-miterlimit="4" stroke="rgb(0,0,0)" stroke-opacity="0.01" stroke-width="7" d=" M0,-20.109500885009766 C11.098433494567871,-20.109500885009766 20.109500885009766,-11.098433494567871 20.109500885009766,0 C20.109500885009766,11.098433494567871 11.098433494567871,20.109500885009766 0,20.109500885009766 C-11.098433494567871,20.109500885009766 -20.109500885009766,11.098433494567871 -20.109500885009766,0 C-20.109500885009766,-11.098433494567871 -11.098433494567871,-20.109500885009766 0,-20.109500885009766z"></path>
        </g>
        </g>
        <g style="display: none;" transform="matrix(1.5199999809265137,0,0,1.5199999809265137,753.9942626953125,416.75433349609375)" opacity="0.03726400000111312">
        <g opacity="1" transform="matrix(1,0,0,1,-282.8909912109375,-145.89100646972656)">
            <path fill="rgb(0,0,0)" fill-opacity="1" d=" M0,-20.109500885009766 C11.098433494567871,-20.109500885009766 20.109500885009766,-11.098433494567871 20.109500885009766,0 C20.109500885009766,11.098433494567871 11.098433494567871,20.109500885009766 0,20.109500885009766 C-11.098433494567871,20.109500885009766 -20.109500885009766,11.098433494567871 -20.109500885009766,0 C-20.109500885009766,-11.098433494567871 -11.098433494567871,-20.109500885009766 0,-20.109500885009766z"></path>
            <path stroke-linecap="butt" stroke-linejoin="miter" fill-opacity="0" stroke-miterlimit="4" stroke="rgb(0,0,0)" stroke-opacity="0.01" stroke-width="7" d=" M0,-20.109500885009766 C11.098433494567871,-20.109500885009766 20.109500885009766,-11.098433494567871 20.109500885009766,0 C20.109500885009766,11.098433494567871 11.098433494567871,20.109500885009766 0,20.109500885009766 C-11.098433494567871,20.109500885009766 -20.109500885009766,11.098433494567871 -20.109500885009766,0 C-20.109500885009766,-11.098433494567871 -11.098433494567871,-20.109500885009766 0,-20.109500885009766z"></path>
        </g>
        </g>
        <g style="display: none;" transform="matrix(0.7699999809265137,0,0,0.7699999809265137,476.93505859375,322.445068359375)" opacity="0.03728800000108947">
        <g opacity="1" transform="matrix(1,0,0,1,-282.8909912109375,-145.89100646972656)">
            <path fill="rgb(0,0,0)" fill-opacity="1" d=" M0,-20.109500885009766 C11.098433494567871,-20.109500885009766 20.109500885009766,-11.098433494567871 20.109500885009766,0 C20.109500885009766,11.098433494567871 11.098433494567871,20.109500885009766 0,20.109500885009766 C-11.098433494567871,20.109500885009766 -20.109500885009766,11.098433494567871 -20.109500885009766,0 C-20.109500885009766,-11.098433494567871 -11.098433494567871,-20.109500885009766 0,-20.109500885009766z"></path>
            <path stroke-linecap="butt" stroke-linejoin="miter" fill-opacity="0" stroke-miterlimit="4" stroke="rgb(0,0,0)" stroke-opacity="0.01" stroke-width="7" d=" M0,-20.109500885009766 C11.098433494567871,-20.109500885009766 20.109500885009766,-11.098433494567871 20.109500885009766,0 C20.109500885009766,11.098433494567871 11.098433494567871,20.109500885009766 0,20.109500885009766 C-11.098433494567871,20.109500885009766 -20.109500885009766,11.098433494567871 -20.109500885009766,0 C-20.109500885009766,-11.098433494567871 -11.098433494567871,-20.109500885009766 0,-20.109500885009766z"></path>
        </g>
        </g>
        <g style="display: none;" transform="matrix(0.6499999761581421,0,0,0.6499999761581421,533.4881591796875,291.9381408691406)" opacity="0.08658666666756204">
        <g opacity="1" transform="matrix(1,0,0,1,-282.8909912109375,-145.89100646972656)">
            <path fill="rgb(0,0,0)" fill-opacity="1" d=" M0,-20.109500885009766 C11.098433494567871,-20.109500885009766 20.109500885009766,-11.098433494567871 20.109500885009766,0 C20.109500885009766,11.098433494567871 11.098433494567871,20.109500885009766 0,20.109500885009766 C-11.098433494567871,20.109500885009766 -20.109500885009766,11.098433494567871 -20.109500885009766,0 C-20.109500885009766,-11.098433494567871 -11.098433494567871,-20.109500885009766 0,-20.109500885009766z"></path>
            <path stroke-linecap="butt" stroke-linejoin="miter" fill-opacity="0" stroke-miterlimit="4" stroke="rgb(0,0,0)" stroke-opacity="0.01" stroke-width="7" d=" M0,-20.109500885009766 C11.098433494567871,-20.109500885009766 20.109500885009766,-11.098433494567871 20.109500885009766,0 C20.109500885009766,11.098433494567871 11.098433494567871,20.109500885009766 0,20.109500885009766 C-11.098433494567871,20.109500885009766 -20.109500885009766,11.098433494567871 -20.109500885009766,0 C-20.109500885009766,-11.098433494567871 -11.098433494567871,-20.109500885009766 0,-20.109500885009766z"></path>
        </g>
        </g>
        <g style="display: block;" transform="matrix(0.6499999761581421,0,0,0.6499999761581421,529.3301391601562,266.16998291015625)" opacity="1">
        <g opacity="1" transform="matrix(1,0,0,1,-282.8909912109375,-145.89100646972656)">
            <path fill="rgb(0,0,0)" fill-opacity="1" d=" M0,-20.109500885009766 C11.098433494567871,-20.109500885009766 20.109500885009766,-11.098433494567871 20.109500885009766,0 C20.109500885009766,11.098433494567871 11.098433494567871,20.109500885009766 0,20.109500885009766 C-11.098433494567871,20.109500885009766 -20.109500885009766,11.098433494567871 -20.109500885009766,0 C-20.109500885009766,-11.098433494567871 -11.098433494567871,-20.109500885009766 0,-20.109500885009766z"></path>
            <path stroke-linecap="butt" stroke-linejoin="miter" fill-opacity="0" stroke-miterlimit="4" stroke="rgb(0,0,0)" stroke-opacity="0.01" stroke-width="7" d=" M0,-20.109500885009766 C11.098433494567871,-20.109500885009766 20.109500885009766,-11.098433494567871 20.109500885009766,0 C20.109500885009766,11.098433494567871 11.098433494567871,20.109500885009766 0,20.109500885009766 C-11.098433494567871,20.109500885009766 -20.109500885009766,11.098433494567871 -20.109500885009766,0 C-20.109500885009766,-11.098433494567871 -11.098433494567871,-20.109500885009766 0,-20.109500885009766z"></path>
        </g>
        </g>
        <g style="display: none;" transform="matrix(0.5099999904632568,0,0,0.5099999904632568,495.8834228515625,229.51339721679688)" opacity="0.10404800000109447">
        <g opacity="1" transform="matrix(1,0,0,1,-282.8909912109375,-145.89100646972656)">
            <path fill="rgb(0,0,0)" fill-opacity="1" d=" M0,-20.109500885009766 C11.098433494567871,-20.109500885009766 20.109500885009766,-11.098433494567871 20.109500885009766,0 C20.109500885009766,11.098433494567871 11.098433494567871,20.109500885009766 0,20.109500885009766 C-11.098433494567871,20.109500885009766 -20.109500885009766,11.098433494567871 -20.109500885009766,0 C-20.109500885009766,-11.098433494567871 -11.098433494567871,-20.109500885009766 0,-20.109500885009766z"></path>
            <path stroke-linecap="butt" stroke-linejoin="miter" fill-opacity="0" stroke-miterlimit="4" stroke="rgb(0,0,0)" stroke-opacity="0.01" stroke-width="7" d=" M0,-20.109500885009766 C11.098433494567871,-20.109500885009766 20.109500885009766,-11.098433494567871 20.109500885009766,0 C20.109500885009766,11.098433494567871 11.098433494567871,20.109500885009766 0,20.109500885009766 C-11.098433494567871,20.109500885009766 -20.109500885009766,11.098433494567871 -20.109500885009766,0 C-20.109500885009766,-11.098433494567871 -11.098433494567871,-20.109500885009766 0,-20.109500885009766z"></path>
        </g>
        </g>
        <g style="display: none;" transform="matrix(0.9399999976158142,0,0,0.9399999976158142,569.5265502929688,258.7465515136719)" opacity="0.046590000001359044">
        <g opacity="1" transform="matrix(1,0,0,1,-282.8909912109375,-145.89100646972656)">
            <path fill="rgb(0,0,0)" fill-opacity="1" d=" M0,-20.109500885009766 C11.098433494567871,-20.109500885009766 20.109500885009766,-11.098433494567871 20.109500885009766,0 C20.109500885009766,11.098433494567871 11.098433494567871,20.109500885009766 0,20.109500885009766 C-11.098433494567871,20.109500885009766 -20.109500885009766,11.098433494567871 -20.109500885009766,0 C-20.109500885009766,-11.098433494567871 -11.098433494567871,-20.109500885009766 0,-20.109500885009766z"></path>
            <path stroke-linecap="butt" stroke-linejoin="miter" fill-opacity="0" stroke-miterlimit="4" stroke="rgb(0,0,0)" stroke-opacity="0.01" stroke-width="7" d=" M0,-20.109500885009766 C11.098433494567871,-20.109500885009766 20.109500885009766,-11.098433494567871 20.109500885009766,0 C20.109500885009766,11.098433494567871 11.098433494567871,20.109500885009766 0,20.109500885009766 C-11.098433494567871,20.109500885009766 -20.109500885009766,11.098433494567871 -20.109500885009766,0 C-20.109500885009766,-11.098433494567871 -11.098433494567871,-20.109500885009766 0,-20.109500885009766z"></path>
        </g>
        </g>
        <g style="display: none;" transform="matrix(0.9399999976158142,0,0,0.9399999976158142,593.5265502929688,284.74652099609375)" opacity="0.06221333333511354">
        <g opacity="1" transform="matrix(1,0,0,1,-282.8909912109375,-145.89100646972656)">
            <path fill="rgb(0,0,0)" fill-opacity="1" d=" M0,-20.109500885009766 C11.098433494567871,-20.109500885009766 20.109500885009766,-11.098433494567871 20.109500885009766,0 C20.109500885009766,11.098433494567871 11.098433494567871,20.109500885009766 0,20.109500885009766 C-11.098433494567871,20.109500885009766 -20.109500885009766,11.098433494567871 -20.109500885009766,0 C-20.109500885009766,-11.098433494567871 -11.098433494567871,-20.109500885009766 0,-20.109500885009766z"></path>
            <path stroke-linecap="butt" stroke-linejoin="miter" fill-opacity="0" stroke-miterlimit="4" stroke="rgb(0,0,0)" stroke-opacity="0.01" stroke-width="7" d=" M0,-20.109500885009766 C11.098433494567871,-20.109500885009766 20.109500885009766,-11.098433494567871 20.109500885009766,0 C20.109500885009766,11.098433494567871 11.098433494567871,20.109500885009766 0,20.109500885009766 C-11.098433494567871,20.109500885009766 -20.109500885009766,11.098433494567871 -20.109500885009766,0 C-20.109500885009766,-11.098433494567871 -11.098433494567871,-20.109500885009766 0,-20.109500885009766z"></path>
        </g>
        </g>
        <g style="display: none;" transform="matrix(0.46000000834465027,0,0,0.46000000834465027,375.23883056640625,234.71885681152344)" opacity="0.06202000000183233">
        <g opacity="1" transform="matrix(1,0,0,1,-282.8909912109375,-145.89100646972656)">
            <path fill="rgb(0,0,0)" fill-opacity="1" d=" M0,-20.109500885009766 C11.098433494567871,-20.109500885009766 20.109500885009766,-11.098433494567871 20.109500885009766,0 C20.109500885009766,11.098433494567871 11.098433494567871,20.109500885009766 0,20.109500885009766 C-11.098433494567871,20.109500885009766 -20.109500885009766,11.098433494567871 -20.109500885009766,0 C-20.109500885009766,-11.098433494567871 -11.098433494567871,-20.109500885009766 0,-20.109500885009766z"></path>
            <path stroke-linecap="butt" stroke-linejoin="miter" fill-opacity="0" stroke-miterlimit="4" stroke="rgb(0,0,0)" stroke-opacity="0.01" stroke-width="7" d=" M0,-20.109500885009766 C11.098433494567871,-20.109500885009766 20.109500885009766,-11.098433494567871 20.109500885009766,0 C20.109500885009766,11.098433494567871 11.098433494567871,20.109500885009766 0,20.109500885009766 C-11.098433494567871,20.109500885009766 -20.109500885009766,11.098433494567871 -20.109500885009766,0 C-20.109500885009766,-11.098433494567871 -11.098433494567871,-20.109500885009766 0,-20.109500885009766z"></path>
        </g>
        </g>
        <g style="display: none;" transform="matrix(0.46000000834465027,0,0,0.46000000834465027,391.2388610839844,248.71885681152344)" opacity="0.04664500000135163">
        <g opacity="1" transform="matrix(1,0,0,1,-282.8909912109375,-145.89100646972656)">
            <path fill="rgb(0,0,0)" fill-opacity="1" d=" M0,-20.109500885009766 C11.098433494567871,-20.109500885009766 20.109500885009766,-11.098433494567871 20.109500885009766,0 C20.109500885009766,11.098433494567871 11.098433494567871,20.109500885009766 0,20.109500885009766 C-11.098433494567871,20.109500885009766 -20.109500885009766,11.098433494567871 -20.109500885009766,0 C-20.109500885009766,-11.098433494567871 -11.098433494567871,-20.109500885009766 0,-20.109500885009766z"></path>
            <path stroke-linecap="butt" stroke-linejoin="miter" fill-opacity="0" stroke-miterlimit="4" stroke="rgb(0,0,0)" stroke-opacity="0.01" stroke-width="7" d=" M0,-20.109500885009766 C11.098433494567871,-20.109500885009766 20.109500885009766,-11.098433494567871 20.109500885009766,0 C20.109500885009766,11.098433494567871 11.098433494567871,20.109500885009766 0,20.109500885009766 C-11.098433494567871,20.109500885009766 -20.109500885009766,11.098433494567871 -20.109500885009766,0 C-20.109500885009766,-11.098433494567871 -11.098433494567871,-20.109500885009766 0,-20.109500885009766z"></path>
        </g>
        </g>
    </g>
</svg>