<svg width="210" height="210" viewBox="0 0 210 210" fill="none" xmlns="http://www.w3.org/2000/svg">
<circle cx="105" cy="105" r="96.5" stroke="white" stroke-width="17" stroke-dasharray="4 10"/>
<path d="M38.6369 129V116.4H44.0909C45.2189 116.4 46.1909 116.586 47.0069 116.958C47.8229 117.318 48.4529 117.84 48.8969 118.524C49.3409 119.208 49.5629 120.024 49.5629 120.972C49.5629 121.908 49.3409 122.718 48.8969 123.402C48.4529 124.086 47.8229 124.614 47.0069 124.986C46.1909 125.346 45.2189 125.526 44.0909 125.526H40.2569L41.5529 124.212V129H38.6369ZM41.5529 124.536L40.2569 123.15H43.9289C44.8289 123.15 45.5009 122.958 45.9449 122.574C46.3889 122.19 46.6109 121.656 46.6109 120.972C46.6109 120.276 46.3889 119.736 45.9449 119.352C45.5009 118.968 44.8289 118.776 43.9289 118.776H40.2569L41.5529 117.39V124.536ZM55.4565 129.144C54.6525 129.144 53.9325 128.988 53.2965 128.676C52.6725 128.364 52.1865 127.89 51.8385 127.254C51.4905 126.606 51.3165 125.784 51.3165 124.788V119.316H54.1245V124.374C54.1245 125.178 54.2925 125.772 54.6285 126.156C54.9765 126.528 55.4625 126.714 56.0865 126.714C56.5185 126.714 56.9025 126.624 57.2385 126.444C57.5745 126.252 57.8385 125.964 58.0305 125.58C58.2225 125.184 58.3185 124.692 58.3185 124.104V119.316H61.1265V129H58.4625V126.336L58.9485 127.11C58.6245 127.782 58.1445 128.292 57.5085 128.64C56.8845 128.976 56.2005 129.144 55.4565 129.144ZM69.1999 129.144C68.3479 129.144 67.6159 128.964 67.0039 128.604C66.3919 128.244 65.9239 127.698 65.5999 126.966C65.2759 126.222 65.1139 125.286 65.1139 124.158C65.1139 123.018 65.2819 122.082 65.6179 121.35C65.9659 120.618 66.4459 120.072 67.0579 119.712C67.6699 119.352 68.3839 119.172 69.1999 119.172C70.1119 119.172 70.9279 119.376 71.6479 119.784C72.3799 120.192 72.9559 120.768 73.3759 121.512C73.8079 122.256 74.0239 123.138 74.0239 124.158C74.0239 125.166 73.8079 126.042 73.3759 126.786C72.9559 127.53 72.3799 128.112 71.6479 128.532C70.9279 128.94 70.1119 129.144 69.1999 129.144ZM63.4759 129V115.644H66.2839V121.278L66.1039 124.14L66.1579 127.02V129H63.4759ZM68.7139 126.84C69.1819 126.84 69.5959 126.732 69.9559 126.516C70.3279 126.3 70.6219 125.994 70.8379 125.598C71.0659 125.19 71.1799 124.71 71.1799 124.158C71.1799 123.594 71.0659 123.114 70.8379 122.718C70.6219 122.322 70.3279 122.016 69.9559 121.8C69.5959 121.584 69.1819 121.476 68.7139 121.476C68.2459 121.476 67.8259 121.584 67.4539 121.8C67.0819 122.016 66.7879 122.322 66.5719 122.718C66.3559 123.114 66.2479 123.594 66.2479 124.158C66.2479 124.71 66.3559 125.19 66.5719 125.598C66.7879 125.994 67.0819 126.3 67.4539 126.516C67.8259 126.732 68.2459 126.84 68.7139 126.84ZM75.6516 129V115.644H78.4596V129H75.6516ZM80.8137 129V119.316H83.6217V129H80.8137ZM82.2177 117.966C81.7017 117.966 81.2817 117.816 80.9577 117.516C80.6337 117.216 80.4717 116.844 80.4717 116.4C80.4717 115.956 80.6337 115.584 80.9577 115.284C81.2817 114.984 81.7017 114.834 82.2177 114.834C82.7337 114.834 83.1537 114.978 83.4777 115.266C83.8017 115.542 83.9637 115.902 83.9637 116.346C83.9637 116.814 83.8017 117.204 83.4777 117.516C83.1657 117.816 82.7457 117.966 82.2177 117.966ZM90.6558 129.144C89.6118 129.144 88.6818 128.934 87.8658 128.514C87.0498 128.082 86.4078 127.488 85.9398 126.732C85.4838 125.976 85.2558 125.118 85.2558 124.158C85.2558 123.186 85.4838 122.328 85.9398 121.584C86.4078 120.828 87.0498 120.24 87.8658 119.82C88.6818 119.388 89.6118 119.172 90.6558 119.172C91.6758 119.172 92.5638 119.388 93.3198 119.82C94.0758 120.24 94.6338 120.846 94.9938 121.638L92.8158 122.808C92.5638 122.352 92.2458 122.016 91.8618 121.8C91.4898 121.584 91.0818 121.476 90.6378 121.476C90.1578 121.476 89.7258 121.584 89.3418 121.8C88.9578 122.016 88.6518 122.322 88.4238 122.718C88.2078 123.114 88.0998 123.594 88.0998 124.158C88.0998 124.722 88.2078 125.202 88.4238 125.598C88.6518 125.994 88.9578 126.3 89.3418 126.516C89.7258 126.732 90.1578 126.84 90.6378 126.84C91.0818 126.84 91.4898 126.738 91.8618 126.534C92.2458 126.318 92.5638 125.976 92.8158 125.508L94.9938 126.696C94.6338 127.476 94.0758 128.082 93.3198 128.514C92.5638 128.934 91.6758 129.144 90.6558 129.144ZM101.402 129V116.4H107.558C109.142 116.4 110.33 116.7 111.122 117.3C111.926 117.9 112.328 118.692 112.328 119.676C112.328 120.336 112.166 120.912 111.842 121.404C111.518 121.884 111.074 122.256 110.51 122.52C109.946 122.784 109.298 122.916 108.566 122.916L108.908 122.178C109.7 122.178 110.402 122.31 111.014 122.574C111.626 122.826 112.1 123.204 112.436 123.708C112.784 124.212 112.958 124.83 112.958 125.562C112.958 126.642 112.532 127.488 111.68 128.1C110.828 128.7 109.574 129 107.918 129H101.402ZM104.3 126.804H107.702C108.458 126.804 109.028 126.684 109.412 126.444C109.808 126.192 110.006 125.796 110.006 125.256C110.006 124.728 109.808 124.338 109.412 124.086C109.028 123.822 108.458 123.69 107.702 123.69H104.084V121.566H107.198C107.906 121.566 108.446 121.446 108.818 121.206C109.202 120.954 109.394 120.576 109.394 120.072C109.394 119.58 109.202 119.214 108.818 118.974C108.446 118.722 107.906 118.596 107.198 118.596H104.3V126.804ZM119.522 129.144C118.418 129.144 117.446 128.928 116.606 128.496C115.778 128.064 115.136 127.476 114.68 126.732C114.224 125.976 113.996 125.118 113.996 124.158C113.996 123.186 114.218 122.328 114.662 121.584C115.118 120.828 115.736 120.24 116.516 119.82C117.296 119.388 118.178 119.172 119.162 119.172C120.11 119.172 120.962 119.376 121.718 119.784C122.486 120.18 123.092 120.756 123.536 121.512C123.98 122.256 124.202 123.15 124.202 124.194C124.202 124.302 124.196 124.428 124.184 124.572C124.172 124.704 124.16 124.83 124.148 124.95H116.282V123.312H122.672L121.592 123.798C121.592 123.294 121.49 122.856 121.286 122.484C121.082 122.112 120.8 121.824 120.44 121.62C120.08 121.404 119.66 121.296 119.18 121.296C118.7 121.296 118.274 121.404 117.902 121.62C117.542 121.824 117.26 122.118 117.056 122.502C116.852 122.874 116.75 123.318 116.75 123.834V124.266C116.75 124.794 116.864 125.262 117.092 125.67C117.332 126.066 117.662 126.372 118.082 126.588C118.514 126.792 119.018 126.894 119.594 126.894C120.11 126.894 120.56 126.816 120.944 126.66C121.34 126.504 121.7 126.27 122.024 125.958L123.518 127.578C123.074 128.082 122.516 128.472 121.844 128.748C121.172 129.012 120.398 129.144 119.522 129.144ZM131.705 119.172C132.473 119.172 133.157 119.328 133.757 119.64C134.369 119.94 134.849 120.408 135.197 121.044C135.545 121.668 135.719 122.472 135.719 123.456V129H132.911V123.888C132.911 123.108 132.737 122.532 132.389 122.16C132.053 121.788 131.573 121.602 130.949 121.602C130.505 121.602 130.103 121.698 129.743 121.89C129.395 122.07 129.119 122.352 128.915 122.736C128.723 123.12 128.627 123.612 128.627 124.212V129H125.819V119.316H128.501V121.998L127.997 121.188C128.345 120.54 128.843 120.042 129.491 119.694C130.139 119.346 130.877 119.172 131.705 119.172ZM142.889 129.144C141.785 129.144 140.813 128.928 139.973 128.496C139.145 128.064 138.503 127.476 138.047 126.732C137.591 125.976 137.363 125.118 137.363 124.158C137.363 123.186 137.585 122.328 138.029 121.584C138.485 120.828 139.103 120.24 139.883 119.82C140.663 119.388 141.545 119.172 142.529 119.172C143.477 119.172 144.329 119.376 145.085 119.784C145.853 120.18 146.459 120.756 146.903 121.512C147.347 122.256 147.569 123.15 147.569 124.194C147.569 124.302 147.563 124.428 147.551 124.572C147.539 124.704 147.527 124.83 147.515 124.95H139.649V123.312H146.039L144.959 123.798C144.959 123.294 144.857 122.856 144.653 122.484C144.449 122.112 144.167 121.824 143.807 121.62C143.447 121.404 143.027 121.296 142.547 121.296C142.067 121.296 141.641 121.404 141.269 121.62C140.909 121.824 140.627 122.118 140.423 122.502C140.219 122.874 140.117 123.318 140.117 123.834V124.266C140.117 124.794 140.231 125.262 140.459 125.67C140.699 126.066 141.029 126.372 141.449 126.588C141.881 126.792 142.385 126.894 142.961 126.894C143.477 126.894 143.927 126.816 144.311 126.66C144.707 126.504 145.067 126.27 145.391 125.958L146.885 127.578C146.441 128.082 145.883 128.472 145.211 128.748C144.539 129.012 143.765 129.144 142.889 129.144ZM149.528 129V119.1C149.528 118.008 149.852 117.138 150.5 116.49C151.148 115.83 152.072 115.5 153.272 115.5C153.68 115.5 154.07 115.542 154.442 115.626C154.826 115.71 155.15 115.842 155.414 116.022L154.676 118.056C154.52 117.948 154.346 117.864 154.154 117.804C153.962 117.744 153.758 117.714 153.542 117.714C153.134 117.714 152.816 117.834 152.588 118.074C152.372 118.302 152.264 118.65 152.264 119.118V120.018L152.336 121.224V129H149.528ZM148.034 121.692V119.532H154.748V121.692H148.034ZM156.332 129V119.316H159.14V129H156.332ZM157.736 117.966C157.22 117.966 156.8 117.816 156.476 117.516C156.152 117.216 155.99 116.844 155.99 116.4C155.99 115.956 156.152 115.584 156.476 115.284C156.8 114.984 157.22 114.834 157.736 114.834C158.252 114.834 158.672 114.978 158.996 115.266C159.32 115.542 159.482 115.902 159.482 116.346C159.482 116.814 159.32 117.204 158.996 117.516C158.684 117.816 158.264 117.966 157.736 117.966ZM165.445 129.144C164.305 129.144 163.417 128.856 162.781 128.28C162.145 127.692 161.827 126.822 161.827 125.67V117.174H164.635V125.634C164.635 126.042 164.743 126.36 164.959 126.588C165.175 126.804 165.469 126.912 165.841 126.912C166.285 126.912 166.663 126.792 166.975 126.552L167.731 128.532C167.443 128.736 167.095 128.892 166.687 129C166.291 129.096 165.877 129.144 165.445 129.144ZM160.333 121.692V119.532H167.047V121.692H160.333ZM57.6746 147.216C56.7026 147.216 55.7966 147.06 54.9566 146.748C54.1286 146.424 53.4086 145.968 52.7966 145.38C52.1846 144.792 51.7046 144.102 51.3566 143.31C51.0206 142.518 50.8526 141.648 50.8526 140.7C50.8526 139.752 51.0206 138.882 51.3566 138.09C51.7046 137.298 52.1846 136.608 52.7966 136.02C53.4206 135.432 54.1466 134.982 54.9746 134.67C55.8026 134.346 56.7086 134.184 57.6926 134.184C58.7846 134.184 59.7686 134.376 60.6446 134.76C61.5326 135.132 62.2766 135.684 62.8766 136.416L61.0046 138.144C60.5726 137.652 60.0926 137.286 59.5646 137.046C59.0366 136.794 58.4606 136.668 57.8366 136.668C57.2486 136.668 56.7086 136.764 56.2166 136.956C55.7246 137.148 55.2986 137.424 54.9386 137.784C54.5786 138.144 54.2966 138.57 54.0926 139.062C53.9006 139.554 53.8046 140.1 53.8046 140.7C53.8046 141.3 53.9006 141.846 54.0926 142.338C54.2966 142.83 54.5786 143.256 54.9386 143.616C55.2986 143.976 55.7246 144.252 56.2166 144.444C56.7086 144.636 57.2486 144.732 57.8366 144.732C58.4606 144.732 59.0366 144.612 59.5646 144.372C60.0926 144.12 60.5726 143.742 61.0046 143.238L62.8766 144.966C62.2766 145.698 61.5326 146.256 60.6446 146.64C59.7686 147.024 58.7786 147.216 57.6746 147.216ZM68.6698 147.144C67.6378 147.144 66.7198 146.928 65.9158 146.496C65.1238 146.064 64.4938 145.476 64.0258 144.732C63.5698 143.976 63.3418 143.118 63.3418 142.158C63.3418 141.186 63.5698 140.328 64.0258 139.584C64.4938 138.828 65.1238 138.24 65.9158 137.82C66.7198 137.388 67.6378 137.172 68.6698 137.172C69.6898 137.172 70.6018 137.388 71.4058 137.82C72.2098 138.24 72.8398 138.822 73.2958 139.566C73.7518 140.31 73.9798 141.174 73.9798 142.158C73.9798 143.118 73.7518 143.976 73.2958 144.732C72.8398 145.476 72.2098 146.064 71.4058 146.496C70.6018 146.928 69.6898 147.144 68.6698 147.144ZM68.6698 144.84C69.1378 144.84 69.5578 144.732 69.9298 144.516C70.3018 144.3 70.5958 143.994 70.8118 143.598C71.0278 143.19 71.1358 142.71 71.1358 142.158C71.1358 141.594 71.0278 141.114 70.8118 140.718C70.5958 140.322 70.3018 140.016 69.9298 139.8C69.5578 139.584 69.1378 139.476 68.6698 139.476C68.2018 139.476 67.7818 139.584 67.4098 139.8C67.0378 140.016 66.7378 140.322 66.5098 140.718C66.2938 141.114 66.1858 141.594 66.1858 142.158C66.1858 142.71 66.2938 143.19 66.5098 143.598C66.7378 143.994 67.0378 144.3 67.4098 144.516C67.7818 144.732 68.2018 144.84 68.6698 144.84ZM75.6047 147V137.316H78.2867V140.052L77.9087 139.26C78.1967 138.576 78.6587 138.06 79.2947 137.712C79.9307 137.352 80.7047 137.172 81.6167 137.172V139.764C81.4967 139.752 81.3887 139.746 81.2927 139.746C81.1967 139.734 81.0947 139.728 80.9867 139.728C80.2187 139.728 79.5947 139.95 79.1147 140.394C78.6467 140.826 78.4127 141.504 78.4127 142.428V147H75.6047ZM88.776 147.144C87.96 147.144 87.246 146.964 86.634 146.604C86.022 146.244 85.542 145.698 85.194 144.966C84.858 144.222 84.69 143.286 84.69 142.158C84.69 141.018 84.852 140.082 85.176 139.35C85.5 138.618 85.968 138.072 86.58 137.712C87.192 137.352 87.924 137.172 88.776 137.172C89.688 137.172 90.504 137.382 91.224 137.802C91.956 138.21 92.532 138.786 92.952 139.53C93.384 140.274 93.6 141.15 93.6 142.158C93.6 143.178 93.384 144.06 92.952 144.804C92.532 145.548 91.956 146.124 91.224 146.532C90.504 146.94 89.688 147.144 88.776 147.144ZM83.052 150.492V137.316H85.734V139.296L85.68 142.176L85.86 145.038V150.492H83.052ZM88.29 144.84C88.758 144.84 89.172 144.732 89.532 144.516C89.904 144.3 90.198 143.994 90.414 143.598C90.642 143.19 90.756 142.71 90.756 142.158C90.756 141.594 90.642 141.114 90.414 140.718C90.198 140.322 89.904 140.016 89.532 139.8C89.172 139.584 88.758 139.476 88.29 139.476C87.822 139.476 87.402 139.584 87.03 139.8C86.658 140.016 86.364 140.322 86.148 140.718C85.932 141.114 85.824 141.594 85.824 142.158C85.824 142.71 85.932 143.19 86.148 143.598C86.364 143.994 86.658 144.3 87.03 144.516C87.402 144.732 87.822 144.84 88.29 144.84ZM99.8357 147.144C98.8037 147.144 97.8857 146.928 97.0817 146.496C96.2897 146.064 95.6597 145.476 95.1917 144.732C94.7357 143.976 94.5077 143.118 94.5077 142.158C94.5077 141.186 94.7357 140.328 95.1917 139.584C95.6597 138.828 96.2897 138.24 97.0817 137.82C97.8857 137.388 98.8037 137.172 99.8357 137.172C100.856 137.172 101.768 137.388 102.572 137.82C103.376 138.24 104.006 138.822 104.462 139.566C104.918 140.31 105.146 141.174 105.146 142.158C105.146 143.118 104.918 143.976 104.462 144.732C104.006 145.476 103.376 146.064 102.572 146.496C101.768 146.928 100.856 147.144 99.8357 147.144ZM99.8357 144.84C100.304 144.84 100.724 144.732 101.096 144.516C101.468 144.3 101.762 143.994 101.978 143.598C102.194 143.19 102.302 142.71 102.302 142.158C102.302 141.594 102.194 141.114 101.978 140.718C101.762 140.322 101.468 140.016 101.096 139.8C100.724 139.584 100.304 139.476 99.8357 139.476C99.3677 139.476 98.9477 139.584 98.5757 139.8C98.2037 140.016 97.9037 140.322 97.6757 140.718C97.4597 141.114 97.3517 141.594 97.3517 142.158C97.3517 142.71 97.4597 143.19 97.6757 143.598C97.9037 143.994 98.2037 144.3 98.5757 144.516C98.9477 144.732 99.3677 144.84 99.8357 144.84ZM106.771 147V137.316H109.453V140.052L109.075 139.26C109.363 138.576 109.825 138.06 110.461 137.712C111.097 137.352 111.871 137.172 112.783 137.172V139.764C112.663 139.752 112.555 139.746 112.459 139.746C112.363 139.734 112.261 139.728 112.153 139.728C111.385 139.728 110.761 139.95 110.281 140.394C109.813 140.826 109.579 141.504 109.579 142.428V147H106.771ZM119.507 147V145.11L119.327 144.696V141.312C119.327 140.712 119.141 140.244 118.769 139.908C118.409 139.572 117.851 139.404 117.095 139.404C116.579 139.404 116.069 139.488 115.565 139.656C115.073 139.812 114.653 140.028 114.305 140.304L113.297 138.342C113.825 137.97 114.461 137.682 115.205 137.478C115.949 137.274 116.705 137.172 117.473 137.172C118.949 137.172 120.095 137.52 120.911 138.216C121.727 138.912 122.135 139.998 122.135 141.474V147H119.507ZM116.555 147.144C115.799 147.144 115.151 147.018 114.611 146.766C114.071 146.502 113.657 146.148 113.369 145.704C113.081 145.26 112.937 144.762 112.937 144.21C112.937 143.634 113.075 143.13 113.351 142.698C113.639 142.266 114.089 141.93 114.701 141.69C115.313 141.438 116.111 141.312 117.095 141.312H119.669V142.95H117.401C116.741 142.95 116.285 143.058 116.033 143.274C115.793 143.49 115.673 143.76 115.673 144.084C115.673 144.444 115.811 144.732 116.087 144.948C116.375 145.152 116.765 145.254 117.257 145.254C117.725 145.254 118.145 145.146 118.517 144.93C118.889 144.702 119.159 144.372 119.327 143.94L119.759 145.236C119.555 145.86 119.183 146.334 118.643 146.658C118.103 146.982 117.407 147.144 116.555 147.144ZM128.385 147.144C127.245 147.144 126.357 146.856 125.721 146.28C125.085 145.692 124.767 144.822 124.767 143.67V135.174H127.575V143.634C127.575 144.042 127.683 144.36 127.899 144.588C128.115 144.804 128.409 144.912 128.781 144.912C129.225 144.912 129.603 144.792 129.915 144.552L130.671 146.532C130.383 146.736 130.035 146.892 129.627 147C129.231 147.096 128.817 147.144 128.385 147.144ZM123.273 139.692V137.532H129.987V139.692H123.273ZM131.995 147V137.316H134.803V147H131.995ZM133.399 135.966C132.883 135.966 132.463 135.816 132.139 135.516C131.815 135.216 131.653 134.844 131.653 134.4C131.653 133.956 131.815 133.584 132.139 133.284C132.463 132.984 132.883 132.834 133.399 132.834C133.915 132.834 134.335 132.978 134.659 133.266C134.983 133.542 135.145 133.902 135.145 134.346C135.145 134.814 134.983 135.204 134.659 135.516C134.347 135.816 133.927 135.966 133.399 135.966ZM141.765 147.144C140.733 147.144 139.815 146.928 139.011 146.496C138.219 146.064 137.589 145.476 137.121 144.732C136.665 143.976 136.437 143.118 136.437 142.158C136.437 141.186 136.665 140.328 137.121 139.584C137.589 138.828 138.219 138.24 139.011 137.82C139.815 137.388 140.733 137.172 141.765 137.172C142.785 137.172 143.697 137.388 144.501 137.82C145.305 138.24 145.935 138.822 146.391 139.566C146.847 140.31 147.075 141.174 147.075 142.158C147.075 143.118 146.847 143.976 146.391 144.732C145.935 145.476 145.305 146.064 144.501 146.496C143.697 146.928 142.785 147.144 141.765 147.144ZM141.765 144.84C142.233 144.84 142.653 144.732 143.025 144.516C143.397 144.3 143.691 143.994 143.907 143.598C144.123 143.19 144.231 142.71 144.231 142.158C144.231 141.594 144.123 141.114 143.907 140.718C143.691 140.322 143.397 140.016 143.025 139.8C142.653 139.584 142.233 139.476 141.765 139.476C141.297 139.476 140.877 139.584 140.505 139.8C140.133 140.016 139.833 140.322 139.605 140.718C139.389 141.114 139.281 141.594 139.281 142.158C139.281 142.71 139.389 143.19 139.605 143.598C139.833 143.994 140.133 144.3 140.505 144.516C140.877 144.732 141.297 144.84 141.765 144.84ZM154.586 137.172C155.354 137.172 156.038 137.328 156.638 137.64C157.25 137.94 157.73 138.408 158.078 139.044C158.426 139.668 158.6 140.472 158.6 141.456V147H155.792V141.888C155.792 141.108 155.618 140.532 155.27 140.16C154.934 139.788 154.454 139.602 153.83 139.602C153.386 139.602 152.984 139.698 152.624 139.89C152.276 140.07 152 140.352 151.796 140.736C151.604 141.12 151.508 141.612 151.508 142.212V147H148.7V137.316H151.382V139.998L150.878 139.188C151.226 138.54 151.724 138.042 152.372 137.694C153.02 137.346 153.758 137.172 154.586 137.172Z" fill="black"/>
<path d="M58.28 92V64H71.76C74.3733 64 76.6267 64.4267 78.52 65.28C80.44 66.1333 81.92 67.36 82.96 68.96C84 70.5333 84.52 72.4 84.52 74.56C84.52 76.72 84 78.5867 82.96 80.16C81.92 81.7333 80.44 82.96 78.52 83.84C76.6267 84.6933 74.3733 85.12 71.76 85.12H63.52L67.72 81.08V92H58.28ZM67.72 82.12L63.52 77.84H71.16C72.4667 77.84 73.4267 77.5467 74.04 76.96C74.68 76.3733 75 75.5733 75 74.56C75 73.5467 74.68 72.7467 74.04 72.16C73.4267 71.5733 72.4667 71.28 71.16 71.28H63.52L67.72 67V82.12ZM86.8159 92V64H101.776C105.643 64 108.496 64.6933 110.336 66.08C112.176 67.44 113.096 69.1867 113.096 71.32C113.096 72.7333 112.696 74 111.896 75.12C111.123 76.2133 109.989 77.08 108.496 77.72C107.003 78.36 105.163 78.68 102.976 78.68L103.776 76.52C105.963 76.52 107.843 76.8267 109.416 77.44C111.016 78.0533 112.243 78.9467 113.096 80.12C113.976 81.2667 114.416 82.6533 114.416 84.28C114.416 86.7067 113.403 88.6 111.376 89.96C109.376 91.32 106.443 92 102.576 92H86.8159ZM96.0959 85.4H101.776C102.816 85.4 103.589 85.2133 104.096 84.84C104.629 84.4667 104.896 83.92 104.896 83.2C104.896 82.48 104.629 81.9333 104.096 81.56C103.589 81.1867 102.816 81 101.776 81H95.4559V74.76H100.496C101.563 74.76 102.336 74.5867 102.816 74.24C103.323 73.8667 103.576 73.3467 103.576 72.68C103.576 71.9867 103.323 71.4667 102.816 71.12C102.336 70.7733 101.563 70.6 100.496 70.6H96.0959V85.4ZM131.433 92.64C129.193 92.64 127.113 92.2933 125.193 91.6C123.3 90.88 121.647 89.8667 120.233 88.56C118.847 87.2533 117.767 85.7067 116.993 83.92C116.22 82.1333 115.833 80.16 115.833 78C115.833 75.84 116.22 73.8667 116.993 72.08C117.767 70.2933 118.847 68.7467 120.233 67.44C121.647 66.1333 123.3 65.1333 125.193 64.44C127.113 63.72 129.193 63.36 131.433 63.36C134.18 63.36 136.607 63.84 138.713 64.8C140.847 65.76 142.607 67.1467 143.993 68.96L138.033 74.28C137.207 73.24 136.287 72.44 135.273 71.88C134.287 71.2933 133.167 71 131.913 71C130.927 71 130.033 71.16 129.233 71.48C128.433 71.8 127.74 72.2667 127.153 72.88C126.593 73.4933 126.153 74.24 125.833 75.12C125.513 75.9733 125.353 76.9333 125.353 78C125.353 79.0667 125.513 80.04 125.833 80.92C126.153 81.7733 126.593 82.5067 127.153 83.12C127.74 83.7333 128.433 84.2 129.233 84.52C130.033 84.84 130.927 85 131.913 85C133.167 85 134.287 84.72 135.273 84.16C136.287 83.5733 137.207 82.76 138.033 81.72L143.993 87.04C142.607 88.8267 140.847 90.2133 138.713 91.2C136.607 92.16 134.18 92.64 131.433 92.64Z" fill="black"/>
</svg>
