<svg width="210" height="210" viewBox="0 0 210 210" fill="none" xmlns="http://www.w3.org/2000/svg">
<path fill-rule="evenodd" clip-rule="evenodd" d="M209.982 106.971L192.985 106.658C192.995 106.107 193 105.554 193 105C193 104.446 192.995 103.893 192.985 103.342L209.982 103.029C209.994 103.685 210 104.342 210 105C210 105.658 209.994 106.315 209.982 106.971ZM209.349 93.2376L192.453 95.1209C192.331 94.027 192.189 92.9395 192.028 91.8588L208.841 89.3456C209.034 90.6354 209.203 91.9329 209.349 93.2376ZM206.936 79.7156L190.433 83.7956C190.169 82.729 189.886 81.6702 189.583 80.6195L205.921 75.9205C206.282 77.176 206.621 78.4413 206.936 79.7156ZM202.767 66.6269L186.944 72.8422C186.543 71.8209 186.123 70.8088 185.685 69.8064L201.263 63.0001C201.786 64.1975 202.288 65.4066 202.767 66.6269ZM196.916 54.2011L182.044 62.4376C181.513 61.4773 180.963 60.5278 180.397 59.5896L194.949 50.8022C195.625 51.9217 196.281 53.0548 196.916 54.2011ZM189.489 42.646L175.819 52.7516C175.166 51.8682 174.496 50.9973 173.811 50.1395L187.096 39.5318C187.913 40.5544 188.71 41.5926 189.489 42.646ZM180.622 32.1551L168.38 43.9505C167.617 43.1594 166.841 42.3826 166.05 41.6204L177.845 29.3783C178.788 30.2866 179.713 31.2124 180.622 32.1551ZM170.468 22.9041L159.861 36.1885C159.003 35.5035 158.132 34.8343 157.248 34.1812L167.354 20.511C168.407 21.2896 169.446 22.0875 170.468 22.9041ZM159.198 15.0506L150.41 29.6034C149.472 29.0369 148.523 28.4875 147.562 27.9556L155.799 13.0842C156.945 13.719 158.078 14.3747 159.198 15.0506ZM147 8.73686L140.194 24.3149C139.191 23.8769 138.179 23.4571 137.158 23.056L143.373 7.23288C144.593 7.71219 145.802 8.21368 147 8.73686ZM134.08 4.07884L129.38 20.4165C128.33 20.1143 127.271 19.8312 126.204 19.5675L130.284 3.06433C131.559 3.37939 132.824 3.71771 134.08 4.07884ZM120.654 1.15904L118.141 17.9722C117.06 17.8107 115.973 17.6688 114.879 17.5468L116.762 0.651458C118.067 0.796895 119.365 0.966239 120.654 1.15904ZM106.971 0.0181235L106.658 17.0152C106.107 17.0051 105.554 17 105 17C104.446 17 103.893 17.0051 103.342 17.0152L103.029 0.0181239C103.685 0.00605888 104.342 0 105 0C105.658 0 106.315 0.00605874 106.971 0.0181235ZM93.2376 0.651461L95.1209 17.5468C94.027 17.6688 92.9395 17.8107 91.8588 17.9722L89.3456 1.15904C90.6354 0.966241 91.9329 0.796898 93.2376 0.651461ZM79.7156 3.06433L83.7956 19.5675C82.729 19.8312 81.6702 20.1143 80.6195 20.4165L75.9205 4.07884C77.176 3.71771 78.4413 3.37939 79.7156 3.06433ZM66.6269 7.23289L72.8422 23.056C71.8209 23.4571 70.8088 23.8769 69.8064 24.3149L63.0001 8.73687C64.1975 8.21369 65.4066 7.7122 66.6269 7.23289ZM54.2011 13.0842L62.4376 27.9556C61.4773 28.4875 60.5278 29.0369 59.5896 29.6034L50.8022 15.0506C51.9217 14.3747 53.0548 13.719 54.2011 13.0842ZM42.646 20.511L52.7516 34.1812C51.8682 34.8343 50.9973 35.5035 50.1395 36.1885L39.5318 22.9041C40.5544 22.0875 41.5926 21.2896 42.646 20.511ZM32.1551 29.3783L43.9505 41.6204C43.1594 42.3826 42.3826 43.1594 41.6204 43.9505L29.3783 32.1551C30.2866 31.2124 31.2124 30.2866 32.1551 29.3783ZM22.9041 39.5318L36.1885 50.1395C35.5035 50.9974 34.8343 51.8682 34.1812 52.7516L20.511 42.646C21.2896 41.5927 22.0875 40.5544 22.9041 39.5318ZM15.0506 50.8023L29.6034 59.5896C29.0369 60.5278 28.4875 61.4773 27.9556 62.4376L13.0842 54.2011C13.719 53.0548 14.3747 51.9217 15.0506 50.8023ZM8.73687 63.0001L24.3149 69.8064C23.8769 70.8089 23.4571 71.8209 23.056 72.8422L7.23289 66.6269C7.71219 65.4066 8.21369 64.1976 8.73687 63.0001ZM4.07884 75.9205L20.4165 80.6195C20.1143 81.6702 19.8312 82.729 19.5675 83.7956L3.06433 79.7156C3.37939 78.4413 3.71771 77.176 4.07884 75.9205ZM1.15904 89.3456L17.9722 91.8588C17.8107 92.9395 17.6688 94.027 17.5468 95.121L0.651458 93.2376C0.796895 91.9329 0.966239 90.6354 1.15904 89.3456ZM0.0181235 103.029C0.00605874 103.685 0 104.342 0 105C0 105.658 0.00605888 106.315 0.0181239 106.971L17.0152 106.658C17.0051 106.107 17 105.554 17 105C17 104.446 17.0051 103.893 17.0152 103.342L0.0181235 103.029ZM0.651461 116.762L17.5468 114.879C17.6688 115.973 17.8107 117.061 17.9722 118.141L1.15904 120.654C0.966241 119.365 0.796898 118.067 0.651461 116.762ZM3.06433 130.284L19.5675 126.204C19.8312 127.271 20.1143 128.33 20.4165 129.38L4.07884 134.08C3.71771 132.824 3.37939 131.559 3.06433 130.284ZM7.23289 143.373L23.056 137.158C23.4571 138.179 23.8769 139.191 24.3149 140.194L8.73687 147C8.21369 145.802 7.7122 144.593 7.23289 143.373ZM13.0842 155.799L27.9556 147.562C28.4875 148.523 29.0369 149.472 29.6034 150.41L15.0506 159.198C14.3747 158.078 13.719 156.945 13.0842 155.799ZM20.511 167.354L34.1812 157.248C34.8343 158.132 35.5035 159.003 36.1885 159.861L22.9041 170.468C22.0875 169.446 21.2896 168.407 20.511 167.354ZM29.3783 177.845L41.6204 166.05C42.3826 166.841 43.1594 167.617 43.9505 168.38L32.1551 180.622C31.2124 179.713 30.2866 178.788 29.3783 177.845ZM39.5318 187.096L50.1395 173.811C50.9974 174.496 51.8682 175.166 52.7516 175.819L42.646 189.489C41.5927 188.71 40.5544 187.913 39.5318 187.096ZM50.8023 194.949L59.5896 180.397C60.5278 180.963 61.4773 181.513 62.4376 182.044L54.2011 196.916C53.0548 196.281 51.9217 195.625 50.8023 194.949ZM63.0001 201.263L69.8064 185.685C70.8089 186.123 71.8209 186.543 72.8422 186.944L66.6269 202.767C65.4066 202.288 64.1976 201.786 63.0001 201.263ZM75.9205 205.921L80.6195 189.584C81.6702 189.886 82.729 190.169 83.7956 190.433L79.7156 206.936C78.4413 206.621 77.1761 206.282 75.9205 205.921ZM89.3456 208.841L91.8588 192.028C92.9395 192.189 94.027 192.331 95.121 192.453L93.2376 209.349C91.9329 209.203 90.6354 209.034 89.3456 208.841ZM103.029 209.982L103.342 192.985C103.893 192.995 104.446 193 105 193C105.554 193 106.107 192.995 106.658 192.985L106.971 209.982C106.315 209.994 105.658 210 105 210C104.342 210 103.685 209.994 103.029 209.982ZM116.762 209.349L114.879 192.453C115.973 192.331 117.061 192.189 118.141 192.028L120.654 208.841C119.365 209.034 118.067 209.203 116.762 209.349ZM130.284 206.936L126.204 190.433C127.271 190.169 128.33 189.886 129.38 189.583L134.08 205.921C132.824 206.282 131.559 206.621 130.284 206.936ZM143.373 202.767L137.158 186.944C138.179 186.543 139.191 186.123 140.194 185.685L147 201.263C145.802 201.786 144.593 202.288 143.373 202.767ZM155.799 196.916L147.562 182.044C148.523 181.513 149.472 180.963 150.41 180.397L159.198 194.949C158.078 195.625 156.945 196.281 155.799 196.916ZM167.354 189.489L157.248 175.819C158.132 175.166 159.003 174.496 159.861 173.811L170.468 187.096C169.446 187.913 168.407 188.71 167.354 189.489ZM177.845 180.622L166.05 168.38C166.841 167.617 167.617 166.841 168.38 166.05L180.622 177.845C179.713 178.788 178.788 179.713 177.845 180.622ZM187.096 170.468L173.811 159.861C174.496 159.003 175.166 158.132 175.819 157.248L189.489 167.354C188.71 168.407 187.913 169.446 187.096 170.468ZM194.949 159.198L180.397 150.41C180.963 149.472 181.513 148.523 182.044 147.562L196.916 155.799C196.281 156.945 195.625 158.078 194.949 159.198ZM201.263 147L185.685 140.194C186.123 139.191 186.543 138.179 186.944 137.158L202.767 143.373C202.288 144.593 201.786 145.802 201.263 147ZM205.921 134.08L189.584 129.38C189.886 128.33 190.169 127.271 190.433 126.204L206.936 130.284C206.621 131.559 206.282 132.824 205.921 134.08ZM208.841 120.654L192.028 118.141C192.189 117.06 192.331 115.973 192.453 114.879L209.349 116.762C209.203 118.067 209.034 119.365 208.841 120.654Z" fill="black"/>
<path d="M40.1644 127H42.8284V122.266H46.5184C49.5424 122.266 51.3604 120.772 51.3604 118.198C51.3604 115.822 49.5604 114.292 46.5364 114.292H40.1644V127ZM42.8284 116.38H46.2844C47.9404 116.38 48.6784 117.082 48.6784 118.234C48.6784 119.692 47.7244 120.16 46.2844 120.16H42.8284V116.38ZM62.1253 117.766H59.5693V121.996C59.5693 124.3 58.9393 125.236 57.3373 125.236C55.9873 125.236 55.5013 124.282 55.5013 123.004V117.766H52.9633V123.436C52.9633 126.136 54.4753 127.252 56.4193 127.252C58.3813 127.252 59.1193 126.586 59.5873 125.758C59.6053 126.244 59.6053 126.748 59.6413 127H62.1253C62.1073 126.1 62.1253 125.2 62.1253 124.3V117.766ZM64.489 123.886C64.489 124.912 64.489 125.722 64.471 127H66.901C66.919 126.748 66.937 126.136 66.937 125.83C67.387 126.532 68.197 127.252 70.033 127.252C72.661 127.252 74.695 125.344 74.695 122.212C74.695 119.476 72.733 117.514 70.213 117.514C68.377 117.514 67.495 118.288 67.027 118.9V113.554H64.489V123.886ZM72.067 122.302C72.067 123.886 71.275 125.218 69.529 125.218C67.873 125.218 66.955 124.03 66.955 122.374C66.955 120.7 67.765 119.512 69.547 119.512C71.311 119.512 72.067 120.916 72.067 122.302ZM79.0094 127V113.554H76.4714V127H79.0094ZM81.3874 127H83.9434V117.766H81.3874V127ZM83.9434 115.804V113.554H81.3874V115.804H83.9434ZM92.9994 123.958C92.6034 124.822 91.9734 125.308 90.7674 125.308C89.0934 125.308 88.3194 123.994 88.3194 122.356C88.3194 120.664 89.1294 119.44 90.7854 119.44C92.1894 119.44 92.7294 120.232 92.9454 120.862H95.5014C95.3574 119.764 94.2594 117.514 90.7674 117.514C87.5094 117.514 85.7094 119.836 85.7094 122.374C85.7094 125.02 87.2934 127.252 90.7674 127.252C93.6654 127.252 95.1414 125.668 95.5554 123.958H92.9994ZM102.508 127H109.204C112.102 127 114.01 125.668 114.01 123.238C114.01 121.51 112.786 120.61 111.58 120.25C112.57 119.908 113.542 119.044 113.542 117.532C113.542 115.678 112.174 114.292 109.24 114.292H102.508V127ZM105.136 119.35V116.326H108.7C109.906 116.326 110.77 116.722 110.77 117.856C110.77 118.774 110.194 119.35 108.664 119.35H105.136ZM105.136 121.366H108.772C110.338 121.366 111.202 121.978 111.202 123.148C111.202 124.588 110.086 124.984 108.79 124.984H105.136V121.366ZM125.388 122.986C125.406 122.734 125.406 122.572 125.406 122.374C125.406 120.016 124.02 117.514 120.456 117.514C117.234 117.514 115.434 119.728 115.434 122.392C115.434 124.768 116.856 127.252 120.492 127.252C123.39 127.252 124.74 125.794 125.28 124.228H122.742C122.346 124.912 121.752 125.326 120.528 125.326C118.998 125.326 118.062 124.318 117.972 122.986H125.388ZM118.008 121.384C118.134 120.286 118.8 119.332 120.456 119.332C122.292 119.332 122.742 120.556 122.814 121.384H118.008ZM127.131 127H129.687V122.446C129.687 120.628 130.407 119.512 131.955 119.512C133.395 119.512 133.863 120.538 133.863 121.744V127H136.437V121.33C136.437 118.9 135.069 117.514 132.819 117.514C130.965 117.514 130.083 118.396 129.669 119.116C129.651 118.666 129.633 118.036 129.597 117.766H127.113C127.131 118.432 127.131 119.314 127.131 120.088V127ZM148.157 122.986C148.175 122.734 148.175 122.572 148.175 122.374C148.175 120.016 146.789 117.514 143.225 117.514C140.003 117.514 138.203 119.728 138.203 122.392C138.203 124.768 139.625 127.252 143.261 127.252C146.159 127.252 147.509 125.794 148.049 124.228H145.511C145.115 124.912 144.521 125.326 143.297 125.326C141.767 125.326 140.831 124.318 140.741 122.986H148.157ZM140.777 121.384C140.903 120.286 141.569 119.332 143.225 119.332C145.061 119.332 145.511 120.556 145.583 121.384H140.777ZM153.209 127V119.638H155.189V117.766H153.209V116.848C153.209 115.786 153.497 115.39 154.541 115.39C154.739 115.39 155.009 115.408 155.189 115.444V113.518C154.919 113.446 154.487 113.428 154.037 113.428C151.733 113.428 150.653 114.616 150.653 116.83V117.766H149.033V119.638H150.653V127H153.209ZM156.557 127H159.113V117.766H156.557V127ZM159.113 115.804V113.554H156.557V115.804H159.113ZM160.658 119.638H162.368V124.318C162.368 126.136 163.016 127.072 165.176 127.072C165.806 127.072 166.418 127.036 166.886 126.874V125.11C166.634 125.164 166.31 125.182 166.058 125.182C165.122 125.182 164.924 124.786 164.924 123.904V119.638H167.156V117.766H164.924V114.958H162.368V117.766H160.658V119.638ZM61.2205 141.058C60.6625 142.372 59.8165 143.182 57.8185 143.182C55.1725 143.182 53.8405 141.076 53.8405 138.556C53.8405 136.036 55.2625 134.128 57.8005 134.128C60.0865 134.128 60.8785 135.316 61.2385 136.234H63.9385C63.5245 134.128 61.6525 132.022 57.8365 132.022C53.4805 132.022 51.0325 135.136 51.0325 138.664C51.0325 142.192 53.2645 145.27 57.6925 145.27C61.5625 145.27 63.2725 143.272 63.9205 141.058H61.2205ZM70.4626 135.514C67.0786 135.514 65.2426 137.8 65.2426 140.374C65.2426 142.93 67.0066 145.252 70.3546 145.252C73.7386 145.252 75.6106 143.128 75.6106 140.374C75.6106 138.034 73.9366 135.514 70.4626 135.514ZM70.4086 137.458C72.1546 137.458 72.9826 138.88 72.9826 140.41C72.9826 141.958 72.1726 143.29 70.4266 143.29C68.7526 143.29 67.8526 141.922 67.8526 140.374C67.8526 138.826 68.6626 137.458 70.4086 137.458ZM77.3971 145H79.9531V141.472C79.9531 138.808 81.4651 137.836 83.5711 137.854V135.514C81.6811 135.478 80.4931 136.396 79.9531 137.674C79.9531 137.08 79.9171 136.072 79.8631 135.766H77.3791C77.3971 136.594 77.3971 137.44 77.3971 138.268V145ZM87.5234 148.942V143.956C87.9734 144.586 88.8554 145.252 90.4934 145.252C92.9414 145.252 95.1734 143.362 95.1734 140.212C95.1734 137.512 93.2654 135.514 90.8534 135.514C89.0354 135.514 88.0454 136.252 87.5234 137.08C87.5234 136.594 87.4874 135.964 87.4514 135.766H84.9494C84.9674 136.522 84.9674 137.278 84.9674 138.034V148.942H87.5234ZM92.5454 140.338C92.5454 141.976 91.6814 143.218 90.0074 143.218C88.3154 143.218 87.4514 142.102 87.4514 140.41C87.4514 138.736 88.1894 137.512 90.0434 137.512C91.7354 137.512 92.5454 138.88 92.5454 140.338ZM101.576 135.514C98.1918 135.514 96.3558 137.8 96.3558 140.374C96.3558 142.93 98.1198 145.252 101.468 145.252C104.852 145.252 106.724 143.128 106.724 140.374C106.724 138.034 105.05 135.514 101.576 135.514ZM101.522 137.458C103.268 137.458 104.096 138.88 104.096 140.41C104.096 141.958 103.286 143.29 101.54 143.29C99.8658 143.29 98.9658 141.922 98.9658 140.374C98.9658 138.826 99.7758 137.458 101.522 137.458ZM108.51 145H111.066V141.472C111.066 138.808 112.578 137.836 114.684 137.854V135.514C112.794 135.478 111.606 136.396 111.066 137.674C111.066 137.08 111.03 136.072 110.976 135.766H108.492C108.51 136.594 108.51 137.44 108.51 138.268V145ZM124.584 138.862C124.584 137.314 123.954 135.514 120.156 135.514C116.646 135.514 115.836 137.314 115.746 138.484H118.302C118.446 137.854 118.77 137.278 120.192 137.278C121.74 137.278 122.1 137.998 122.1 138.826V139.168H120.066C117.366 139.168 115.224 139.852 115.224 142.246C115.224 143.704 116.232 145.252 118.788 145.252C120.588 145.252 121.65 144.712 122.154 143.866C122.154 144.136 122.19 144.748 122.262 145H124.656C124.638 144.802 124.584 143.614 124.584 142.498V138.862ZM122.1 141.058C122.1 142.444 121.344 143.398 119.472 143.398C118.248 143.398 117.708 142.822 117.708 142.12C117.708 141.238 118.428 140.824 120.102 140.824H122.1V141.058ZM125.736 137.638H127.446V142.318C127.446 144.136 128.094 145.072 130.254 145.072C130.884 145.072 131.496 145.036 131.964 144.874V143.11C131.712 143.164 131.388 143.182 131.136 143.182C130.2 143.182 130.002 142.786 130.002 141.904V137.638H132.234V135.766H130.002V132.958H127.446V135.766H125.736V137.638ZM133.805 145H136.361V135.766H133.805V145ZM136.361 133.804V131.554H133.805V133.804H136.361ZM143.347 135.514C139.963 135.514 138.127 137.8 138.127 140.374C138.127 142.93 139.891 145.252 143.239 145.252C146.623 145.252 148.495 143.128 148.495 140.374C148.495 138.034 146.821 135.514 143.347 135.514ZM143.293 137.458C145.039 137.458 145.867 138.88 145.867 140.41C145.867 141.958 145.057 143.29 143.311 143.29C141.637 143.29 140.737 141.922 140.737 140.374C140.737 138.826 141.547 137.458 143.293 137.458ZM150.282 145H152.838V140.446C152.838 138.628 153.558 137.512 155.106 137.512C156.546 137.512 157.014 138.538 157.014 139.744V145H159.588V139.33C159.588 136.9 158.22 135.514 155.97 135.514C154.116 135.514 153.234 136.396 152.82 137.116C152.802 136.666 152.784 136.036 152.748 135.766H150.264C150.282 136.432 150.282 137.314 150.282 138.088V145Z" fill="black"/>
<path d="M59.32 87H68.4V77.44H75.16C82.16 77.44 86.6 74 86.6 68.04C86.6 62.24 81.88 58.88 75.12 58.88H59.32V87ZM68.4 65.04H73.72C76.52 65.04 77.6 66.32 77.6 68.12C77.6 70.28 76.16 71.28 73.72 71.28H68.4V65.04ZM89.9653 87H107.085C114.965 87 118.565 83.56 118.565 78.68C118.565 75.12 115.925 73.04 113.125 72.16C115.485 71.36 117.485 69.44 117.485 66.16C117.485 62.28 114.485 58.88 107.285 58.88H89.9653V87ZM98.8453 69.68V64.72H105.045C107.085 64.72 108.325 65.52 108.325 67.2C108.325 68.56 107.565 69.68 105.045 69.68H98.8453ZM98.8453 75.44H105.365C107.885 75.44 109.005 76.52 109.005 78.24C109.005 80.32 107.605 81.2 105.165 81.2H98.8453V75.44ZM142.72 77.44C141.92 79.84 140.52 81.36 137.12 81.36C132.4 81.36 130.72 77.2 130.72 72.72C130.72 67.8 132.8 64.44 137.08 64.44C141.12 64.44 142.28 66.76 142.68 68.28H151.88C151.16 63.2 146.68 58.24 137.12 58.24C126.24 58.24 121.08 65.2 121.08 72.92C121.08 80.96 126.32 87.64 136.76 87.64C145.8 87.64 150.56 83.4 151.84 77.44H142.72Z" fill="black"/>
<path d="M105 154L107.245 160.91H114.511L108.633 165.18L110.878 172.09L105 167.82L99.1221 172.09L101.367 165.18L95.4894 160.91H102.755L105 154Z" fill="black"/>
</svg>
