<svg width="24" height="25" viewBox="0 0 24 25" fill="none" xmlns="http://www.w3.org/2000/svg">
<path d="M22.162 6.52556C21.3985 6.86325 20.589 7.08503 19.76 7.18356C20.6337 6.66099 21.2877 5.83857 21.6 4.86956C20.78 5.35756 19.881 5.69956 18.944 5.88456C18.3146 5.21113 17.4804 4.76452 16.5709 4.61414C15.6615 4.46376 14.7279 4.61805 13.9153 5.05301C13.1026 5.48797 12.4564 6.17924 12.0771 7.01935C11.6978 7.85946 11.6067 8.80134 11.818 9.69856C10.1551 9.61521 8.52832 9.18308 7.04328 8.43022C5.55823 7.67736 4.24812 6.6206 3.19799 5.32856C2.82628 5.96701 2.63095 6.69278 2.63199 7.43156C2.63199 8.88156 3.36999 10.1626 4.49199 10.9126C3.828 10.8917 3.17862 10.7123 2.59799 10.3896V10.4416C2.59819 11.4073 2.93236 12.3432 3.54384 13.0906C4.15532 13.8381 5.00647 14.351 5.95299 14.5426C5.33661 14.7096 4.6903 14.7342 4.06299 14.6146C4.32986 15.4458 4.85 16.1728 5.55058 16.6937C6.25117 17.2146 7.09712 17.5034 7.96999 17.5196C7.10247 18.2009 6.10917 18.7045 5.04687 19.0017C3.98458 19.2989 2.87412 19.3838 1.77899 19.2516C3.69069 20.481 5.91609 21.1337 8.18899 21.1316C15.882 21.1316 20.089 14.7586 20.089 9.23156C20.089 9.05156 20.084 8.86956 20.076 8.69156C20.8949 8.09972 21.6016 7.36658 22.163 6.52656L22.162 6.52556Z" fill="black"/>
</svg>
