<svg width="479" height="143" viewBox="0 0 479 143" fill="none" xmlns="http://www.w3.org/2000/svg">
<g clip-path="url(#clip0_1:10)">
<path d="M448.65 94.03C448.65 96.9 446.49 98.26 443.83 98.26H441.12V103.39H438.41V89.89H443.91C446.73 89.85 448.65 91.44 448.65 94.03ZM445.91 94.03C445.91 92.59 444.91 92.03 443.58 92.03H441.12V96.03H443.52C444.96 96.03 445.91 95.46 445.91 94.03ZM462.91 99.32C462.91 101.68 461.08 103.32 458.26 103.32H452.32V89.82H458.04C461.22 89.82 462.48 91.49 462.48 93.26C462.511 93.868 462.361 94.4717 462.047 94.9936C461.734 95.5156 461.272 95.9321 460.72 96.19C461.365 96.4193 461.921 96.8463 462.309 97.4101C462.696 97.974 462.896 98.6458 462.88 99.33L462.91 99.32ZM454.97 95.23H457.74C459.24 95.23 459.85 94.57 459.85 93.55C459.85 92.53 459.08 91.95 457.85 91.95H454.94L454.97 95.23ZM460.14 99.23C460.14 98.07 459.39 97.32 457.66 97.32H454.94V101.23H457.71C459.31 101.25 460.11 100.56 460.11 99.25L460.14 99.23ZM475.36 99.23C475.201 99.869 474.825 100.433 474.296 100.825C473.767 101.217 473.118 101.413 472.46 101.38C469.75 101.38 468.88 98.9 468.88 96.54C468.88 94.18 469.88 91.77 472.38 91.77C473.059 91.7023 473.739 91.8858 474.292 92.2857C474.845 92.6855 475.232 93.274 475.38 93.94H478.04C477.7 91.68 475.96 89.63 472.45 89.63C468.14 89.63 466.06 92.95 466.06 96.63C466.06 100.31 468.06 103.5 472.32 103.5C475.64 103.5 477.5 101.69 478.06 99.22L475.36 99.23ZM68.64 0.0299988V30.33C78.9039 30.33 88.7474 34.4073 96.005 41.665C103.263 48.9226 107.34 58.7661 107.34 69.03C107.34 79.2939 103.263 89.1374 96.005 96.3951C88.7474 103.653 78.9039 107.73 68.64 107.73V138.03C86.9479 138.03 104.506 130.757 117.452 117.812C130.397 104.866 137.67 87.3079 137.67 69C137.67 50.6921 130.397 33.1341 117.452 20.1884C104.506 7.24278 86.9479 -0.0299988 68.64 -0.0299988V0.0299988ZM29.94 69.03C29.9506 79.2906 34.0313 89.128 41.2867 96.3833C48.542 103.639 58.3794 107.719 68.64 107.73V30.33C58.3794 30.3406 48.542 34.4213 41.2867 41.6767C34.0313 48.932 29.9506 58.7694 29.94 69.03ZM20.64 112.89L17.64 115.6C19.08 117.18 20.64 118.7 22.19 120.14L24.89 117.14C23.44 115.81 22.04 114.37 20.64 112.89ZM34.56 129.03L35.56 129.61H35.7C37.16 130.397 38.65 131.133 40.17 131.82L41.82 128.16C39.99 127.34 38.18 126.41 36.43 125.42L34.56 129.03ZM24.78 21.03L22.04 18.03C21.14 18.86 20.26 19.71 19.41 20.58H19.33H19.27L19.04 21.03H18.96H18.89H18.82C18.42 21.45 18.02 21.88 17.63 22.31L20.63 25C21.86 23.84 23.29 22.39 24.78 21.03ZM54.78 136.67C55.68 136.85 56.59 137.02 57.5 137.17H57.71H57.98C58.98 137.34 60.07 137.47 61.13 137.59L61.56 133.59C59.56 133.38 57.56 133.06 55.56 132.66L54.78 136.67ZM61.36 4.42001L60.91 0.420013H59.33H59.2H59.09H58.87C57.43 0.630013 56 0.880013 54.6 1.17001L55.41 5.10001C57.34 4.97001 59.36 4.64999 61.36 4.42999V4.42001ZM0.0400085 76.76V76.86C0.200009 78.1 0.390008 79.33 0.610008 80.55V80.61C0.690008 81.04 0.770008 81.47 0.860008 81.9L4.79001 81.09C4.39001 79.09 4.07001 77.09 3.79001 75.09L0.0400085 76.76ZM5.77001 97.58C6.07001 98.24 6.38001 98.9 6.70001 99.58V99.66C7.23001 100.66 7.77001 101.66 8.34001 102.66L11.83 100.66C10.83 98.91 9.90001 97.1 9.08001 95.27L5.77001 97.58ZM41.77 9.82001L40.04 6.16L39.47 6.42999H39.11H39.02H38.74C37.24 7.14999 35.74 7.93 34.33 8.75L36.33 12.24C38.1 11.58 39.92 10.65 41.74 9.82001H41.77ZM12.12 36.96L8.63 34.96C8.47001 35.23 8.32001 35.51 8.17001 35.78C7.43001 37.12 6.74001 38.5 6.10001 39.9C6.06749 39.9818 6.03078 40.0619 5.99001 40.14L9.65001 41.79C10.17 40.51 11.09 38.69 12.09 36.95L12.12 36.96ZM4.96001 55.96L1.02001 55.16L0.930008 55.62C0.700008 56.83 0.500009 58.05 0.330009 59.27V59.36C0.270009 59.85 0.210011 60.36 0.160011 60.81L4.16001 61.25C4.21001 59.96 4.53001 57.95 4.93001 56.03L4.96001 55.96ZM187.45 48.96L194.15 43.46L213.66 65.81H226.66L201.66 37.81L225.31 16.71H212.45C203.12 25.16 194.64 32.56 187.45 39.05V16.78H177.11V65.86H187.42L187.45 48.96ZM251.45 29.17C244.28 29.17 240.87 32.61 239.27 35.38C239.22 33.63 239.1 31.22 238.96 30.14H229.36C229.43 32.73 229.43 36.14 229.43 39.14V65.81H239.32V48.29C239.32 41.29 242.14 36.99 248.09 36.99C253.65 36.99 255.44 40.92 255.44 45.56V65.86H265.37V43.95C265.38 34.57 260.11 29.22 251.46 29.22L251.45 29.17ZM310.21 48.03C310.21 58.67 303 66.86 289.89 66.86C276.99 66.86 270.22 57.93 270.22 48.05C270.22 38.17 277.28 29.25 290.32 29.25C303.72 29.22 310.21 38.97 310.21 48.03ZM300.09 48.2C300.09 42.25 296.9 36.81 290.09 36.81C283.28 36.81 280.24 42.03 280.24 48.03C280.24 54.03 283.71 59.28 290.24 59.28C296.96 59.27 300.09 54.14 300.09 48.17V48.2ZM371.03 30.2H361.37C356.52 47.54 355.01 54.05 354.3 57.69H354.23C353.61 54.53 352.32 49.5 346.54 30.2H337.26C331.54 49.02 330.26 53.78 329.26 57.98H329.19C328.51 54.08 327.3 48.89 322.31 30.2H312.12L323.12 65.87H333.85C337.73 54.29 340.54 44.87 341.49 41.17H341.56C342.74 45.68 345.2 53.35 348.98 65.87H359.51L371.03 30.2ZM375.03 65.87H384.91V48.29C384.91 41.29 387.74 36.99 393.69 36.99C399.25 36.99 401.04 40.92 401.04 45.56V65.86H410.97V43.95C410.97 34.57 405.7 29.22 397.05 29.22C389.88 29.22 386.47 32.66 384.87 35.43C384.82 33.68 384.7 31.27 384.56 30.19H374.96C375.03 32.78 375.03 36.19 375.03 39.19V65.87ZM220.37 91.87C220.37 101.78 213.37 107.58 201.72 107.58H187.47V125.84H177.11V76.78H201.75C213.42 76.78 220.35 82.72 220.35 91.89L220.37 91.87ZM210.04 92.03C210.04 87.54 207.18 84.85 200.77 84.85H187.47V99.42H200.76C206.35 99.45 210.04 97.64 210.04 92.03ZM235.31 97.57C235.31 95.24 235.17 91.36 235 90.16H225.4C225.47 93.39 225.47 96.63 225.47 99.85V125.85H235.31V112.24C235.31 101.97 241.16 98.24 249.31 98.31V89.31C242.04 89.12 237.39 92.66 235.3 97.6L235.31 97.57ZM254.65 125.83H264.49V90.19H254.64L254.65 125.83ZM254.65 82.64H264.49V73.93H254.64L254.65 82.64ZM290.14 117.19H290.04C288.77 112.96 284.23 102.19 279.87 90.19H269.24L284.24 125.86H295.16L310.16 90.19H300.16C293.77 106.6 291.33 113.22 290.13 117.22L290.14 117.19ZM346.57 116.19C346.57 120.46 346.78 125.04 346.87 125.82H337.57C337.313 124.367 337.173 122.896 337.15 121.42C335.24 124.7 331.15 126.79 324.15 126.79C314.29 126.79 310.43 120.79 310.43 115.21C310.43 105.92 318.66 103.34 329.07 103.34H336.92V102.03C336.92 98.82 335.53 96.03 329.56 96.03C324.06 96.03 322.82 98.23 322.28 100.66H312.44C312.78 96.16 315.91 89.2 329.44 89.2C344.14 89.2 346.55 96.2 346.55 102.13L346.57 116.19ZM336.95 109.72C336.04 109.67 333.6 109.67 329.28 109.67C322.78 109.67 320.02 111.28 320.02 114.67C320.02 117.38 322.13 119.6 326.8 119.6C334.02 119.6 336.95 115.92 336.95 110.6V109.72ZM371.39 119.25C364.89 119.25 361.89 114.18 361.89 107.88C361.89 101.39 365.05 96.67 371.42 96.67C376.88 96.67 378.95 99.72 379.8 102.1H389.63C389.1 97.9 384.85 89.18 371.39 89.18C358.76 89.18 351.87 98.18 351.87 107.97C351.87 118.18 357.95 126.79 371.35 126.79C382.55 126.79 388.29 120.71 389.83 114.05H379.99C378.42 117.44 376.04 119.29 371.38 119.29L371.39 119.25ZM412.64 118.03H412.47C411.66 115.32 408.55 106.27 401.96 90.16H391.17L407.25 127.28C404.94 132.06 403.59 133.75 398.74 133.75C397.507 133.75 396.276 133.683 395.05 133.55V141.63C396.787 141.901 398.542 142.035 400.3 142.03C411.47 142.03 413.48 137.49 419.69 121.78L432.25 90.16H422.19C416.74 104.82 413.69 114.51 412.64 118.03Z" fill="black"/>
</g>
<defs>
<clipPath id="clip0_1:10">
<rect width="478.04" height="142.06" fill="white"/>
</clipPath>
</defs>
</svg>
