
<svg xmlns="http://www.w3.org/2000/svg" viewBox="0 0 478.04 142.06"><defs><style>.cls-1{fill:#fff;}</style></defs><g id="Layer_2" data-name="Layer 2"><g id="art"><path class="cls-1" d="M448.65,94c0,2.88-2.16,4.23-4.82,4.23h-2.71v5.14h-2.71V89.85h5.5C446.73,89.85,448.65,91.44,448.65,94Zm-2.74.06c0-1.44-1-2-2.33-2h-2.46v4h2.4C445,96.05,445.91,95.45,445.91,94Zm17,5.29c0,2.35-1.84,4-4.65,4h-5.94V89.85h5.76c3.18,0,4.44,1.66,4.44,3.44a3.06,3.06,0,0,1-1.76,2.93A3.24,3.24,0,0,1,462.88,99.33Zm-7.94-4.1h2.77c1.5,0,2.11-.65,2.11-1.67s-.77-1.6-2-1.6h-2.89Zm5.17,4c0-1.16-.75-1.91-2.48-1.91h-2.69v3.91h2.77C459.31,101.25,460.11,100.56,460.11,99.25Zm15.22,0a2.85,2.85,0,0,1-2.91,2.15c-2.7,0-3.57-2.48-3.57-4.83,0-2.51,1-4.78,3.5-4.78a2.79,2.79,0,0,1,3,2.18H478c-.34-2.26-2.08-4.31-5.59-4.31-4.31,0-6.39,3.31-6.39,7s2,6.87,6.26,6.87c3.32,0,5.18-1.81,5.73-4.29ZM68.64,0V30.33a38.7,38.7,0,0,1,0,77.4v30.33A69,69,0,0,0,68.64,0ZM29.94,69a38.74,38.74,0,0,0,38.7,38.7V30.33A38.74,38.74,0,0,0,29.94,69Zm-9.3,43.86-3,2.71q2.17,2.37,4.56,4.53l2.7-3C23.44,115.81,22,114.37,20.64,112.89Zm13.92,16.18,1,.58h.17l0,0h0Q38,131,40.29,132l1.65-3.66c-1.83-.82-3.64-1.75-5.39-2.74ZM24.77,21l-2.71-3c-.9.83-1.78,1.68-2.63,2.55h0l0,0h0v0h0v0h0v0h0v0h-.08v0h0v0h-.05l0,0h0L19,21h0v0h-.09l0,0h0l0,0h-.07l0,0h0v0h0v0h0c-.4.42-.8.84-1.19,1.27l3,2.7C21.86,23.83,23.29,22.39,24.77,21Zm30,115.64c.9.19,1.81.36,2.72.5h0l.21,0H58q1.56.24,3.15.42l.43-4c-2-.21-4-.53-6-.93ZM61.36,4.42l-.45-4H59.33l-.13,0h-.12l-.21,0h0c-1.44.2-2.87.45-4.28.74l.82,3.94C57.34,5,59.35,4.65,61.36,4.42ZM0,76.76v0H0v0h0v0h0v0h0v0h0v0h0v0h0v0h0v0h0v0h0v0h0v0h0v0h0v0h0v.06h0v0h0v0h0v0h0v0h0v0h0v0h0v0h0v.11h0v0h0v0h0v0h0v0h0q.24,1.88.57,3.69h0v0h0v0h0v0h0v0h0v0h0v0h0v0h0v0h0v0h0v0h0v0h0c.08.43.16.86.25,1.29L5,82.28c-.4-2-.72-4-1-6ZM5.77,97.58c.3.66.61,1.32.92,2h0l0,0h0v0h0v0h0v0h0v0h0v0h0v0h0l0,.08h0l0,0h0v0h0v0h0v0H7v0H7v0H7v0H7v0H7v0H7v0H7v0h0c.52,1,1.07,2,1.64,3l3.49-2c-1-1.74-1.93-3.55-2.76-5.38Zm36-87.76L40.08,6.16l-.57.27h-.37l-.08,0h-.28c-1.5.72-3,1.49-4.42,2.32l2,3.48C38.1,11.58,39.91,10.65,41.74,9.82ZM12.09,36.94l-3.5-2c-.15.27-.3.55-.46.82h0v0h0v0h0v0h0v0h0v0H8l0,0H8c-.74,1.35-1.43,2.73-2.08,4.12h0v0h0v0h0v0h0v0h0v0h0v0h0v0h0v0h0v0h0v0h0l-.11.23,3.66,1.66C10.17,40.51,11.09,38.69,12.09,36.94ZM4.93,56,1,55.18l-.09.46h0v0h0v0h0v0h0v0h0v0h0v0h0C.62,57.09.42,58.3.25,59.53h0v0h0v0h0v0h0v0h0v0h0v0h0v0h0v0h0v.09h0v0h0v0h0v0h0v0h0v0h0v0h0v0h0c-.06.48-.12,1-.17,1.45L4,62C4.21,60,4.52,58,4.93,56Zm182.49-7,6.7-5.5,19.51,22.35h13l-25-28,23.66-21.1H212.45c-9.34,8.45-17.81,15.84-25,22.33V16.78H177.11V65.86h10.31Zm64-19.79c-7.17,0-10.57,3.43-12.18,6.2,0-1.75-.16-4.15-.3-5.23h-9.6c.07,2.59.07,6,.07,9V65.86h9.88V48.28c0-7,2.83-11.29,8.77-11.29,5.57,0,7.36,3.92,7.36,8.57v20.3h9.93V44C265.38,34.57,260.11,29.22,251.45,29.22ZM310.21,48c0,10.64-7.21,18.83-20.32,18.83-12.9,0-19.68-8.93-19.68-18.81s7.07-18.8,20.1-18.8C303.72,29.22,310.21,39,310.21,48Zm-10.12.17c0-6-3.19-11.4-10-11.4S280.24,42,280.24,48s3.47,11.25,10,11.25C297,59.27,300.09,54.14,300.09,48.17Zm70.93-18h-9.66C356.52,47.52,355,54,354.3,57.67h-.07c-.62-3.15-1.91-8.18-7.69-27.48h-9.28c-5.72,18.82-7,23.58-8,27.78h-.07c-.68-3.9-1.89-9.09-6.88-27.78H312.12l11,35.67h10.72c3.89-11.58,6.7-21,7.65-24.7h.07c1.18,4.51,3.64,12.18,7.42,24.7h10.53Zm4,35.67h9.88V48.28c0-7,2.83-11.29,8.77-11.29,5.57,0,7.36,3.92,7.36,8.57v20.3H411V44c0-9.38-5.27-14.73-13.93-14.73-7.17,0-10.57,3.43-12.18,6.2,0-1.75-.16-4.15-.3-5.23h-9.6c.07,2.59.07,6,.07,9Zm-154.66,26c0,9.91-7,15.71-18.65,15.71H187.47v18.26H177.11V76.78h24.64C213.42,76.78,220.35,82.72,220.35,91.89ZM210,92.05c0-4.48-2.86-7.17-9.27-7.17H187.47V99.45h13.29C206.35,99.45,210,97.64,210,92.05Zm25.26,5.55c0-2.33-.13-6.22-.3-7.41h-9.6c.07,3.22.07,6.47.07,9.69v26h9.83V112.24c0-10.28,5.86-14,14-13.93v-9C242,89.12,237.39,92.66,235.29,97.6Zm19.35,28.26h9.84V90.19h-9.84Zm0-43.19h9.84V74h-9.84Zm35.49,34.55H290c-1.27-4.23-5.81-15-10.18-27H269.24l15,35.67h10.92l15-35.67h-10C293.77,106.6,291.33,113.22,290.13,117.22Zm56.43-1c0,4.27.21,8.84.3,9.63h-9.31a29.15,29.15,0,0,1-.41-4.41c-1.91,3.28-6,5.38-13,5.38-9.86,0-13.72-6-13.72-11.58,0-9.3,8.23-11.87,18.64-11.87h7.85V102c0-3.21-1.39-6-7.37-6-5.49,0-6.73,2.2-7.27,4.63h-9.84c.34-4.5,3.47-11.46,17-11.46,14.69,0,17.11,7,17.11,12.93Zm-9.62-6.47c-.91-.05-3.35-.05-7.67-.05-6.5,0-9.26,1.61-9.26,5,0,2.7,2.11,4.93,6.78,4.93,7.22,0,10.15-3.68,10.15-9.05Zm34.44,9.53c-6.5,0-9.5-5.07-9.5-11.37,0-6.49,3.16-11.22,9.53-11.22,5.46,0,7.53,3.06,8.37,5.44h9.84c-.54-4.2-4.78-12.92-18.24-12.92-12.63,0-19.52,9-19.52,18.79,0,10.21,6.07,18.82,19.47,18.82,11.21,0,16.95-6.09,18.48-12.74H380C378.42,117.44,376,119.29,371.38,119.29Zm41.26-1.23h-.17c-.81-2.71-3.92-11.76-10.52-27.87H391.17l16.07,37.11c-2.3,4.79-3.65,6.48-8.5,6.48a34.21,34.21,0,0,1-3.69-.2v8.08a33.51,33.51,0,0,0,5.25.4c11.17,0,13.18-4.54,19.39-20.25l12.56-31.62H422.18C416.74,104.82,413.68,114.51,412.64,118.06Z"/></g></g></svg>