<svg width="299" height="118" viewBox="0 0 299 118" fill="none" xmlns="http://www.w3.org/2000/svg">
<path d="M134.5 47.5C134.5 56.96 128.16 65.29 116.14 65.29C104.83 65.29 98.14 57.44 98.14 47.52C98.14 38.17 105.14 29.94 116.4 29.94C127.96 29.94 134.5 38.21 134.5 47.5ZM105.71 47.41C105.71 54.11 109.35 59.64 116.53 59.64C123.71 59.64 127 53.71 127 47.64C127 41.31 123.59 35.64 116.21 35.64C109.17 35.62 105.71 41.23 105.71 47.41ZM145.52 61.78V75.09H138.71V46.01C138.71 44.01 138.71 41.94 138.66 39.93H145.32C145.451 41.0953 145.511 42.2674 145.5 43.44C146.91 41.24 149.5 39.26 154.37 39.26C160.83 39.26 165.91 44.6 165.91 51.78C165.91 60.19 159.91 65.24 153.44 65.24C149.05 65.24 146.71 63.47 145.5 61.78H145.52ZM158.94 52.13C158.94 48.27 156.74 44.63 152.24 44.63C147.33 44.63 145.36 47.89 145.36 52.31C145.36 56.73 147.66 59.8 152.14 59.8C156.62 59.8 158.92 56.5 158.92 52.13H158.94ZM166.55 39.93H171.12V32.45H177.95V39.93H183.88V44.93H177.95V56.32C177.95 58.64 178.48 59.7 180.95 59.7C181.691 59.7196 182.432 59.6593 183.16 59.52V64.26C181.661 64.6444 180.117 64.8194 178.57 64.78C172.81 64.78 171.11 62.26 171.11 57.43V44.95H166.54L166.55 39.93ZM202.61 49.47V55.16H186.81V49.47H202.61ZM243.09 47.47C243.09 56.93 236.76 65.26 224.73 65.26C213.42 65.26 206.73 57.41 206.73 47.49C206.73 38.14 213.73 29.91 225 29.91C236.53 29.94 243.07 38.21 243.07 47.5L243.09 47.47ZM214.29 47.38C214.29 54.08 217.92 59.61 225.11 59.61C232.3 59.61 235.58 53.68 235.58 47.61C235.58 41.28 232.17 35.61 224.78 35.61C217.71 35.62 214.27 41.23 214.27 47.41L214.29 47.38ZM271.85 57.38C271.85 59.77 271.85 62.17 271.85 64.56H265.23C265.13 63.89 265.11 62.56 265.07 61.27C263.84 63.48 261.86 65.27 256.61 65.27C251.36 65.27 247.41 62.27 247.41 55.08V39.93H254.2V53.93C254.2 57.34 255.48 59.93 259.09 59.93C263.36 59.93 265.04 57.43 265.04 51.31V39.93H271.83L271.85 57.38ZM275.03 39.92H279.6V32.44H286.43V39.92H292.36V44.92H286.41V56.32C286.41 58.64 286.94 59.7 289.41 59.7C290.151 59.7196 290.892 59.6593 291.62 59.52V64.26C290.121 64.6444 288.577 64.8194 287.03 64.78C281.27 64.78 279.57 62.26 279.57 57.43V44.95H275.01L275.03 39.92ZM131.9 103.06C131.9 97.06 131.9 90.97 132.13 87.29H132.08C130.4 93.18 126.34 104.37 122.08 116.57H115.83C112.55 106.1 108.06 93.39 106.24 87.31C106.51 91.23 106.77 98.01 106.77 103.77V116.62H100.32V82.72H110.59C114.4 93.41 118.38 104.13 119.39 108.28H119.44C120.93 103.28 124.88 92.9 128.5 82.72H138.84V116.62H131.95L131.9 103.06ZM168.22 109.92C168.22 112.87 168.37 116.03 168.43 116.57H162C161.824 115.579 161.727 114.576 161.71 113.57C160.4 115.83 157.57 117.28 152.71 117.28C145.9 117.28 143.23 113.14 143.23 109.28C143.23 102.86 148.92 101.08 156.11 101.08H161.54V100.14C161.54 97.92 160.54 96.02 156.45 96.02C152.65 96.02 151.79 97.54 151.45 99.22H144.71C144.94 96.11 147.1 91.3 156.44 91.3C166.59 91.3 168.26 96.13 168.26 100.23L168.22 109.92ZM161.58 105.45C160.95 105.45 159.26 105.45 156.28 105.45C151.78 105.45 149.88 106.55 149.88 108.92C149.88 110.8 151.34 112.33 154.56 112.33C159.56 112.33 161.56 109.79 161.56 106.08L161.58 105.45ZM198.15 108.45C197.09 113.05 193.15 117.25 185.38 117.25C176.12 117.25 171.93 111.3 171.93 104.25C171.93 97.48 176.69 91.25 185.41 91.25C194.71 91.25 197.64 97.25 198.01 100.17H191.22C190.63 98.53 189.22 96.42 185.43 96.42C181.03 96.42 178.85 99.68 178.85 104.17C178.85 108.66 180.92 112.02 185.42 112.02C188.6 112.02 190.28 110.74 191.35 108.43L198.15 108.45ZM208.41 80.72V95.44C209.33 93.92 211.5 91.26 216.88 91.26C222.82 91.26 226.44 94.72 226.44 101.76V116.62H219.58V102.62C219.58 99.15 218.53 96.68 214.66 96.68C210.49 96.68 208.44 99.86 208.44 104.68V116.62H201.65V80.72H208.41ZM231.87 80.72H238.71V86.72H231.91L231.87 80.72ZM231.87 91.93H238.71V116.62H231.91L231.87 91.93ZM243.87 98.15C243.87 96.06 243.87 93.72 243.82 91.93H250.45C250.55 92.67 250.63 94.34 250.66 95.55C251.77 93.63 254.12 91.26 259.08 91.26C265.08 91.26 268.7 94.95 268.7 101.43V116.62H261.84V102.62C261.84 99.41 260.6 96.7 256.75 96.7C252.65 96.7 250.7 99.7 250.7 104.5V116.62H243.87V98.15ZM279.15 105.89C279.172 106.75 279.368 107.596 279.725 108.378C280.083 109.16 280.594 109.862 281.229 110.442C281.864 111.022 282.609 111.467 283.42 111.752C284.232 112.037 285.092 112.155 285.95 112.1C289.18 112.1 290.8 110.99 291.84 109.2H298.63C297.19 113.35 293.56 117.2 285.82 117.2C276.13 117.2 272.37 110.59 272.37 104.26C272.37 97.16 277.13 91.26 285.74 91.26C295.26 91.26 298.95 97.94 298.95 104.26C298.95 104.82 298.95 105.26 298.95 105.92L279.15 105.89ZM292.03 101.62C291.86 99.41 290.68 96.17 285.75 96.17C281.35 96.17 279.55 98.69 279.26 101.62H292.03ZM33.0301 98.47C26.5033 98.47 20.123 96.5346 14.6962 92.9085C9.2694 89.2824 5.03971 84.1285 2.54202 78.0985C0.0443234 72.0686 -0.609181 65.4334 0.664131 59.032C1.93744 52.6306 5.08039 46.7506 9.69552 42.1355C14.3107 37.5203 20.1907 34.3774 26.5921 33.1041C32.9934 31.8308 39.6286 32.4843 45.6586 34.982C51.6886 37.4797 56.8425 41.7094 60.4685 47.1362C64.0946 52.563 66.0301 58.9432 66.0301 65.47C66.0194 74.2204 62.5339 82.6084 56.3398 88.7893C50.1458 94.9702 41.7505 98.438 33 98.43L33.0301 98.47ZM120.68 4.87999C120.075 4.82829 119.468 4.94703 118.927 5.22275C118.386 5.49846 117.934 5.92014 117.62 6.44C117.62 6 117.62 5.39 117.54 5.12H115.13C115.13 5.77999 115.13 6.63 115.13 7.39V14.09H117.61V9.62C117.61 7.85999 118.32 6.78 119.82 6.78C121.32 6.78 121.66 7.78 121.66 8.94V14.04H124.16V8.53C124.15 6.18 122.83 4.84 120.65 4.84L120.68 4.87999ZM114.09 1.75H110.87C108.53 3.88 106.4 5.75 104.58 7.37V1.75H101.99V14.09H104.58V9.81999L106.27 8.42999L111.17 14.05H114.43L108.14 7.04999L114.09 1.75ZM238.71 7.19C238.711 7.33018 238.682 7.46894 238.626 7.59727C238.569 7.72561 238.486 7.84066 238.383 7.93495C238.279 8.02925 238.157 8.10068 238.023 8.14462C237.89 8.18856 237.75 8.20402 237.61 8.19H236.21V5H237.57C238.32 5 238.62 5.39 238.62 5.81C238.627 5.95382 238.591 6.09644 238.516 6.21944C238.441 6.34244 238.331 6.44017 238.2 6.5C238.344 6.55143 238.469 6.64451 238.56 6.76738C238.651 6.89025 238.703 7.03737 238.71 7.19ZM236.83 6.19H237.49C237.84 6.19 237.99 6.02999 237.99 5.78999C237.99 5.54999 237.81 5.40999 237.52 5.40999H236.83V6.19ZM238.06 7.19C238.06 6.91 237.88 6.73999 237.47 6.73999H236.83V7.62H237.49C237.89 7.62 238.08 7.48 238.08 7.17L238.06 7.19ZM226.71 12.09H226.66C226.46 11.41 225.66 9.09 224.02 5.09H221.31L225.31 14.42C224.73 15.63 224.39 16.05 223.17 16.05C222.864 16.0666 222.557 16.0666 222.25 16.05V18.05C222.686 18.1204 223.128 18.1538 223.57 18.15C226.37 18.15 226.88 17.01 228.44 13.06L231.6 5.11H229.07C227.71 8.76 226.95 11.2 226.71 12.09ZM216.34 12.4C214.7 12.4 213.95 11.13 213.95 9.53999C213.95 7.94999 214.74 6.72 216.34 6.72C216.795 6.67233 217.253 6.78235 217.637 7.03169C218.021 7.28104 218.308 7.65461 218.45 8.09H220.92C220.79 7.03 219.72 4.84 216.33 4.84C215.692 4.80106 215.052 4.89507 214.452 5.1161C213.852 5.33713 213.304 5.68037 212.844 6.12405C212.383 6.56774 212.02 7.10222 211.776 7.69366C211.533 8.28511 211.415 8.92063 211.43 9.56C211.43 12.13 212.96 14.3 216.32 14.3C219.14 14.3 220.58 12.76 220.97 11.09H218.5C218.329 11.5157 218.023 11.874 217.63 12.1104C217.236 12.3468 216.776 12.4484 216.32 12.4H216.34ZM235.34 5.92C235.341 6.06301 235.312 6.20461 235.254 6.33527C235.195 6.46592 235.11 6.58257 235.003 6.67735C234.896 6.77213 234.77 6.84285 234.633 6.8847C234.496 6.92656 234.352 6.9386 234.21 6.92H233.56V8.14H232.92V4.95H234.22C234.36 4.93016 234.503 4.94027 234.639 4.97966C234.775 5.01905 234.901 5.08683 235.008 5.17851C235.116 5.27019 235.203 5.38369 235.264 5.51151C235.324 5.63932 235.357 5.77855 235.36 5.92H235.34ZM234.7 5.92C234.7 5.57 234.45 5.44 234.15 5.44H233.56V6.39H234.13C234.49 6.41 234.71 6.27 234.71 5.94L234.7 5.92ZM241.7 7.14999C241.663 7.3023 241.573 7.43675 241.447 7.52994C241.321 7.62312 241.167 7.66914 241.01 7.65999C240.37 7.65999 240.16 7.06999 240.16 6.51999C240.16 5.96999 240.4 5.37999 240.99 5.37999C241.151 5.36636 241.312 5.4115 241.442 5.50708C241.573 5.60266 241.664 5.74221 241.7 5.89999H242.34C242.288 5.59483 242.122 5.32109 241.874 5.13509C241.627 4.94908 241.318 4.86495 241.01 4.89999C240.798 4.89737 240.588 4.93974 240.393 5.02429C240.199 5.10885 240.025 5.23367 239.882 5.39053C239.739 5.5474 239.631 5.73274 239.566 5.93433C239.5 6.13591 239.477 6.34915 239.5 6.56C239.474 6.76706 239.493 6.97734 239.556 7.17628C239.619 7.37523 239.725 7.55808 239.866 7.71217C240.006 7.86626 240.179 7.98792 240.371 8.0687C240.564 8.14947 240.771 8.18744 240.98 8.17999C241.29 8.21112 241.601 8.12612 241.852 7.94141C242.103 7.7567 242.277 7.48541 242.34 7.17999L241.7 7.14999ZM210.08 11.62C210.08 12.69 210.13 13.84 210.15 14.04H207.81C207.746 13.6734 207.713 13.3021 207.71 12.93C207.23 13.76 206.2 14.29 204.45 14.29C201.97 14.29 201 12.78 201 11.37C201 9.04 203.07 8.37 205.68 8.37H207.68V8.03C207.68 7.22 207.33 6.53 205.83 6.53C204.33 6.53 204.13 7.08 204 7.69H201.51C201.59 6.56 202.38 4.81 205.78 4.81C209.47 4.81 210.08 6.57 210.08 8.06V11.62ZM207.71 10H205.71C204.08 10 203.38 10.4 203.38 11.27C203.38 11.95 203.91 12.51 205.09 12.51C206.9 12.51 207.64 11.58 207.64 10.23L207.71 10ZM146.55 12C146.39 11.21 146.07 9.95 144.61 5.09H142.28C140.84 9.82 140.52 11.02 140.28 12.09C140.11 11.09 139.81 9.8 138.55 5.09H135.99L138.75 14.09H141.44C142.44 11.18 143.13 8.80999 143.37 7.87999C143.67 9.01999 144.29 10.94 145.24 14.09H147.88L150.79 5.09H148.36C147.06 9.44 146.71 11.08 146.5 11.99L146.55 12ZM195.94 11.89C195.62 10.83 194.48 8.11 193.38 5.09H190.72L194.49 14.09H197.24L201.01 5.09H198.41C196.81 9.21 196.19 10.87 195.89 11.88L195.94 11.89ZM135.47 9.56999C135.47 12.25 133.66 14.31 130.36 14.31C129.717 14.3564 129.072 14.2675 128.466 14.049C127.859 13.8306 127.305 13.4874 126.84 13.0417C126.374 12.596 126.008 12.0577 125.763 11.4614C125.518 10.8651 125.402 10.2242 125.42 9.58C125.42 8.25392 125.947 6.98215 126.885 6.04446C127.822 5.10678 129.094 4.58 130.42 4.58C131.746 4.58 133.018 5.10678 133.956 6.04446C134.893 6.98215 135.42 8.25392 135.42 9.58L135.47 9.56999ZM132.93 9.56999C132.93 8.07999 132.12 6.70999 130.42 6.70999C128.72 6.70999 127.94 8.01999 127.94 9.53999C127.904 9.89319 127.942 10.25 128.051 10.5879C128.16 10.9257 128.339 11.2371 128.575 11.5023C128.811 11.7675 129.099 11.9807 129.422 12.1284C129.745 12.276 130.095 12.3549 130.45 12.36C132.09 12.39 132.88 11.1 132.88 9.62L132.93 9.56999ZM178.4 5.48C178.4 7.97 176.64 9.48 173.71 9.48H170.13V14.07H167.53V1.70999H173.71C176.61 1.70999 178.35 3.20999 178.35 5.50999L178.4 5.48ZM175.8 5.48C175.8 4.36 175.09 3.67999 173.47 3.67999H170.13V7.34H173.47C174.83 7.41 175.71 6.95999 175.71 5.54999L175.8 5.48ZM157.29 4.76999C156.685 4.71946 156.079 4.83871 155.538 5.11432C154.997 5.38992 154.544 5.81095 154.23 6.33C154.23 5.89 154.23 5.27999 154.15 5.00999H151.71C151.71 5.66999 151.71 6.52 151.71 7.28V13.98H154.19V9.62C154.19 7.85999 154.9 6.78 156.4 6.78C157.9 6.78 158.25 7.78 158.25 8.94V14.04H160.71V8.53C160.71 6.18 159.42 4.84 157.24 4.84L157.29 4.76999ZM187.02 3.12H189.49V0.929993H187.02V3.12ZM182.16 6.87999C182.16 6.28999 182.16 5.30999 182.08 5.00999H179.67C179.67 5.81999 179.67 6.64 179.67 7.45V13.98H182.15V10.62C182.15 8.02999 183.62 7.08999 185.66 7.12V4.84C184.92 4.76335 184.175 4.92721 183.536 5.30728C182.896 5.68736 182.396 6.26341 182.11 6.95L182.16 6.87999ZM187.02 13.98H189.49V4.98H187.02V13.98Z" fill="black"/>
</svg>
