<svg width="299" height="118" viewBox="0 0 299 118" fill="none" xmlns="http://www.w3.org/2000/svg">
<g clip-path="url(#clip0_224_1908)">
<path d="M134.5 47.4999C134.5 56.9599 128.16 65.2899 116.14 65.2899C104.83 65.2899 98.14 57.4399 98.14 47.5199C98.14 38.1699 105.14 29.9399 116.4 29.9399C127.96 29.9399 134.5 38.2099 134.5 47.4999ZM105.71 47.4099C105.71 54.1099 109.35 59.6399 116.53 59.6399C123.71 59.6399 127 53.7099 127 47.6399C127 41.3099 123.59 35.6399 116.21 35.6399C109.17 35.6199 105.71 41.2299 105.71 47.4099ZM145.52 61.7799V75.0899H138.71V46.0099C138.71 44.0099 138.71 41.9399 138.66 39.9299H145.32C145.451 41.0952 145.511 42.2674 145.5 43.4399C146.91 41.2399 149.5 39.2599 154.37 39.2599C160.83 39.2599 165.91 44.5999 165.91 51.7799C165.91 60.1899 159.91 65.2399 153.44 65.2399C149.05 65.2399 146.71 63.4699 145.5 61.7799H145.52ZM158.94 52.1299C158.94 48.2699 156.74 44.6299 152.24 44.6299C147.33 44.6299 145.36 47.8899 145.36 52.3099C145.36 56.7299 147.66 59.7999 152.14 59.7999C156.62 59.7999 158.92 56.4999 158.92 52.1299H158.94ZM166.55 39.9299H171.12V32.4499H177.95V39.9299H183.88V44.9299H177.95V56.3199C177.95 58.6399 178.48 59.6999 180.95 59.6999C181.691 59.7196 182.432 59.6592 183.16 59.5199V64.2599C181.661 64.6443 180.117 64.8193 178.57 64.7799C172.81 64.7799 171.11 62.2599 171.11 57.4299V44.9499H166.54L166.55 39.9299ZM202.61 49.4699V55.1599H186.81V49.4699H202.61ZM243.09 47.4699C243.09 56.9299 236.76 65.2599 224.73 65.2599C213.42 65.2599 206.73 57.4099 206.73 47.4899C206.73 38.1399 213.73 29.9099 225 29.9099C236.53 29.9399 243.07 38.2099 243.07 47.4999L243.09 47.4699ZM214.29 47.3799C214.29 54.0799 217.92 59.6099 225.11 59.6099C232.3 59.6099 235.58 53.6799 235.58 47.6099C235.58 41.2799 232.17 35.6099 224.78 35.6099C217.71 35.6199 214.27 41.2299 214.27 47.4099L214.29 47.3799ZM271.85 57.3799C271.85 59.7699 271.85 62.1699 271.85 64.5599H265.23C265.13 63.8899 265.11 62.5599 265.07 61.2699C263.84 63.4799 261.86 65.2699 256.61 65.2699C251.36 65.2699 247.41 62.2699 247.41 55.0799V39.9299H254.2V53.9299C254.2 57.3399 255.48 59.9299 259.09 59.9299C263.36 59.9299 265.04 57.4299 265.04 51.3099V39.9299H271.83L271.85 57.3799ZM275.03 39.9199H279.6V32.4399H286.43V39.9199H292.36V44.9199H286.41V56.3199C286.41 58.6399 286.94 59.6999 289.41 59.6999C290.151 59.7196 290.892 59.6592 291.62 59.5199V64.2599C290.121 64.6443 288.577 64.8193 287.03 64.7799C281.27 64.7799 279.57 62.2599 279.57 57.4299V44.9499H275.01L275.03 39.9199ZM131.9 103.06C131.9 97.0599 131.9 90.9699 132.13 87.2899H132.08C130.4 93.1799 126.34 104.37 122.08 116.57H115.83C112.55 106.1 108.06 93.3899 106.24 87.3099C106.51 91.2299 106.77 98.0099 106.77 103.77V116.62H100.32V82.7199H110.59C114.4 93.4099 118.38 104.13 119.39 108.28H119.44C120.93 103.28 124.88 92.8999 128.5 82.7199H138.84V116.62H131.95L131.9 103.06ZM168.22 109.92C168.22 112.87 168.37 116.03 168.43 116.57H162C161.824 115.579 161.727 114.576 161.71 113.57C160.4 115.83 157.57 117.28 152.71 117.28C145.9 117.28 143.23 113.14 143.23 109.28C143.23 102.86 148.92 101.08 156.11 101.08H161.54V100.14C161.54 97.9199 160.54 96.0199 156.45 96.0199C152.65 96.0199 151.79 97.5399 151.45 99.2199H144.71C144.94 96.1099 147.1 91.2999 156.44 91.2999C166.59 91.2999 168.26 96.1299 168.26 100.23L168.22 109.92ZM161.58 105.45C160.95 105.45 159.26 105.45 156.28 105.45C151.78 105.45 149.88 106.55 149.88 108.92C149.88 110.8 151.34 112.33 154.56 112.33C159.56 112.33 161.56 109.79 161.56 106.08L161.58 105.45ZM198.15 108.45C197.09 113.05 193.15 117.25 185.38 117.25C176.12 117.25 171.93 111.3 171.93 104.25C171.93 97.4799 176.69 91.2499 185.41 91.2499C194.71 91.2499 197.64 97.2499 198.01 100.17H191.22C190.63 98.5299 189.22 96.4199 185.43 96.4199C181.03 96.4199 178.85 99.6799 178.85 104.17C178.85 108.66 180.92 112.02 185.42 112.02C188.6 112.02 190.28 110.74 191.35 108.43L198.15 108.45ZM208.41 80.7199V95.4399C209.33 93.9199 211.5 91.2599 216.88 91.2599C222.82 91.2599 226.44 94.7199 226.44 101.76V116.62H219.58V102.62C219.58 99.1499 218.53 96.6799 214.66 96.6799C210.49 96.6799 208.44 99.8599 208.44 104.68V116.62H201.65V80.7199H208.41ZM231.87 80.7199H238.71V86.7199H231.91L231.87 80.7199ZM231.87 91.9299H238.71V116.62H231.91L231.87 91.9299ZM243.87 98.1499C243.87 96.0599 243.87 93.7199 243.82 91.9299H250.45C250.55 92.6699 250.63 94.3399 250.66 95.5499C251.77 93.6299 254.12 91.2599 259.08 91.2599C265.08 91.2599 268.7 94.9499 268.7 101.43V116.62H261.84V102.62C261.84 99.4099 260.6 96.6999 256.75 96.6999C252.65 96.6999 250.7 99.6999 250.7 104.5V116.62H243.87V98.1499ZM279.15 105.89C279.172 106.749 279.368 107.596 279.725 108.378C280.083 109.16 280.594 109.862 281.229 110.442C281.864 111.022 282.609 111.467 283.42 111.752C284.232 112.037 285.092 112.155 285.95 112.1C289.18 112.1 290.8 110.99 291.84 109.2H298.63C297.19 113.35 293.56 117.2 285.82 117.2C276.13 117.2 272.37 110.59 272.37 104.26C272.37 97.16 277.13 91.2599 285.74 91.2599C295.26 91.2599 298.95 97.9399 298.95 104.26C298.95 104.82 298.95 105.26 298.95 105.92L279.15 105.89ZM292.03 101.62C291.86 99.4099 290.68 96.1699 285.75 96.1699C281.35 96.1699 279.55 98.6899 279.26 101.62H292.03ZM33.0301 98.4699C26.5033 98.4699 20.123 96.5345 14.6962 92.9084C9.2694 89.2823 5.03971 84.1284 2.54202 78.0985C0.0443234 72.0685 -0.609181 65.4333 0.664131 59.032C1.93744 52.6306 5.08039 46.7505 9.69552 42.1354C14.3107 37.5203 20.1907 34.3773 26.5921 33.104C32.9934 31.8307 39.6286 32.4842 45.6586 34.9819C51.6886 37.4796 56.8425 41.7093 60.4685 47.1361C64.0946 52.5629 66.0301 58.9432 66.0301 65.4699C66.0194 74.2204 62.5339 82.6083 56.3398 88.7892C50.1458 94.9701 41.7505 98.4379 33 98.4299L33.0301 98.4699ZM120.68 4.87993C120.075 4.82823 119.468 4.94697 118.927 5.22269C118.386 5.4984 117.934 5.92008 117.62 6.43994C117.62 5.99994 117.62 5.38993 117.54 5.11993H115.13C115.13 5.77993 115.13 6.62994 115.13 7.38994V14.0899H117.61V9.61993C117.61 7.85993 118.32 6.77994 119.82 6.77994C121.32 6.77994 121.66 7.77994 121.66 8.93994V14.0399H124.16V8.52994C124.15 6.17994 122.83 4.83994 120.65 4.83994L120.68 4.87993ZM114.09 1.74994H110.87C108.53 3.87994 106.4 5.74993 104.58 7.36993V1.74994H101.99V14.0899H104.58V9.81993L106.27 8.42993L111.17 14.0499H114.43L108.14 7.04993L114.09 1.74994ZM238.71 7.18994C238.711 7.33012 238.682 7.46888 238.626 7.59721C238.569 7.72555 238.486 7.8406 238.383 7.93489C238.279 8.02919 238.157 8.10062 238.023 8.14456C237.89 8.1885 237.75 8.20396 237.61 8.18994H236.21V4.99994H237.57C238.32 4.99994 238.62 5.38994 238.62 5.80994C238.627 5.95376 238.591 6.09638 238.516 6.21938C238.441 6.34238 238.331 6.44011 238.2 6.49994C238.344 6.55137 238.469 6.64445 238.56 6.76732C238.651 6.89019 238.703 7.03731 238.71 7.18994ZM236.83 6.18994H237.49C237.84 6.18994 237.99 6.02993 237.99 5.78993C237.99 5.54993 237.81 5.40993 237.52 5.40993H236.83V6.18994ZM238.06 7.18994C238.06 6.90994 237.88 6.73993 237.47 6.73993H236.83V7.61993H237.49C237.89 7.61993 238.08 7.47994 238.08 7.16994L238.06 7.18994ZM226.71 12.0899H226.66C226.46 11.4099 225.66 9.08994 224.02 5.08994H221.31L225.31 14.4199C224.73 15.6299 224.39 16.0499 223.17 16.0499C222.864 16.0665 222.557 16.0665 222.25 16.0499V18.0499C222.686 18.1203 223.128 18.1538 223.57 18.1499C226.37 18.1499 226.88 17.0099 228.44 13.0599L231.6 5.10994H229.07C227.71 8.75994 226.95 11.1999 226.71 12.0899ZM216.34 12.3999C214.7 12.3999 213.95 11.1299 213.95 9.53993C213.95 7.94993 214.74 6.71994 216.34 6.71994C216.795 6.67227 217.253 6.78228 217.637 7.03163C218.021 7.28098 218.308 7.65455 218.45 8.08994H220.92C220.79 7.02994 219.72 4.83994 216.33 4.83994C215.692 4.801 215.052 4.89501 214.452 5.11604C213.852 5.33707 213.304 5.68031 212.844 6.12399C212.383 6.56768 212.02 7.10216 211.776 7.6936C211.533 8.28505 211.415 8.92057 211.43 9.55994C211.43 12.1299 212.96 14.2999 216.32 14.2999C219.14 14.2999 220.58 12.7599 220.97 11.0899H218.5C218.329 11.5157 218.023 11.8739 217.63 12.1103C217.236 12.3467 216.776 12.4484 216.32 12.3999H216.34ZM235.34 5.91994C235.341 6.06295 235.312 6.20455 235.254 6.33521C235.195 6.46586 235.11 6.58251 235.003 6.67729C234.896 6.77207 234.77 6.84279 234.633 6.88464C234.496 6.9265 234.352 6.93853 234.21 6.91994H233.56V8.13994H232.92V4.94994H234.22C234.36 4.9301 234.503 4.94021 234.639 4.9796C234.775 5.01899 234.901 5.08677 235.008 5.17845C235.116 5.27013 235.203 5.38363 235.264 5.51144C235.324 5.63926 235.357 5.77849 235.36 5.91994H235.34ZM234.7 5.91994C234.7 5.56994 234.45 5.43994 234.15 5.43994H233.56V6.38994H234.13C234.49 6.40994 234.71 6.26994 234.71 5.93994L234.7 5.91994ZM241.7 7.14993C241.663 7.30224 241.573 7.43669 241.447 7.52988C241.321 7.62306 241.167 7.66908 241.01 7.65993C240.37 7.65993 240.16 7.06993 240.16 6.51993C240.16 5.96993 240.4 5.37993 240.99 5.37993C241.151 5.3663 241.312 5.41144 241.442 5.50702C241.573 5.6026 241.664 5.74215 241.7 5.89993H242.34C242.288 5.59477 242.122 5.32103 241.874 5.13503C241.627 4.94902 241.318 4.86488 241.01 4.89993C240.798 4.89731 240.588 4.93967 240.393 5.02423C240.199 5.10879 240.025 5.23361 239.882 5.39047C239.739 5.54734 239.631 5.73268 239.566 5.93427C239.5 6.13585 239.477 6.34909 239.5 6.55994C239.474 6.767 239.493 6.97728 239.556 7.17622C239.619 7.37517 239.725 7.55802 239.866 7.71211C240.006 7.8662 240.179 7.98786 240.371 8.06863C240.564 8.14941 240.771 8.18738 240.98 8.17993C241.29 8.21106 241.601 8.12605 241.852 7.94135C242.103 7.75664 242.277 7.48535 242.34 7.17993L241.7 7.14993ZM210.08 11.6199C210.08 12.6899 210.13 13.8399 210.15 14.0399H207.81C207.746 13.6733 207.713 13.3021 207.71 12.9299C207.23 13.7599 206.2 14.2899 204.45 14.2899C201.97 14.2899 201 12.7799 201 11.3699C201 9.03993 203.07 8.36993 205.68 8.36993H207.68V8.02994C207.68 7.21994 207.33 6.52994 205.83 6.52994C204.33 6.52994 204.13 7.07994 204 7.68994H201.51C201.59 6.55994 202.38 4.80994 205.78 4.80994C209.47 4.80994 210.08 6.56994 210.08 8.05994V11.6199ZM207.71 9.99994H205.71C204.08 9.99994 203.38 10.3999 203.38 11.2699C203.38 11.9499 203.91 12.5099 205.09 12.5099C206.9 12.5099 207.64 11.5799 207.64 10.2299L207.71 9.99994ZM146.55 11.9999C146.39 11.2099 146.07 9.94994 144.61 5.08994H142.28C140.84 9.81993 140.52 11.0199 140.28 12.0899C140.11 11.0899 139.81 9.79994 138.55 5.08994H135.99L138.75 14.0899H141.44C142.44 11.1799 143.13 8.80993 143.37 7.87993C143.67 9.01993 144.29 10.9399 145.24 14.0899H147.88L150.79 5.08994H148.36C147.06 9.43994 146.71 11.0799 146.5 11.9899L146.55 11.9999ZM195.94 11.8899C195.62 10.8299 194.48 8.10994 193.38 5.08994H190.72L194.49 14.0899H197.24L201.01 5.08994H198.41C196.81 9.20994 196.19 10.8699 195.89 11.8799L195.94 11.8899ZM135.47 9.56993C135.47 12.2499 133.66 14.3099 130.36 14.3099C129.717 14.3563 129.072 14.2674 128.466 14.049C127.859 13.8305 127.305 13.4874 126.84 13.0417C126.374 12.596 126.008 12.0576 125.763 11.4613C125.518 10.8651 125.402 10.2242 125.42 9.57994C125.42 8.25386 125.947 6.98209 126.885 6.0444C127.822 5.10672 129.094 4.57994 130.42 4.57994C131.746 4.57994 133.018 5.10672 133.956 6.0444C134.893 6.98209 135.42 8.25386 135.42 9.57994L135.47 9.56993ZM132.93 9.56993C132.93 8.07993 132.12 6.70993 130.42 6.70993C128.72 6.70993 127.94 8.01993 127.94 9.53993C127.904 9.89313 127.942 10.25 128.051 10.5878C128.16 10.9256 128.339 11.237 128.575 11.5022C128.811 11.7674 129.099 11.9806 129.422 12.1283C129.745 12.276 130.095 12.3548 130.45 12.3599C132.09 12.3899 132.88 11.0999 132.88 9.61993L132.93 9.56993ZM178.4 5.47993C178.4 7.96993 176.64 9.47993 173.71 9.47993H170.13V14.0699H167.53V1.70993H173.71C176.61 1.70993 178.35 3.20993 178.35 5.50993L178.4 5.47993ZM175.8 5.47993C175.8 4.35993 175.09 3.67993 173.47 3.67993H170.13V7.33994H173.47C174.83 7.40994 175.71 6.95993 175.71 5.54993L175.8 5.47993ZM157.29 4.76993C156.685 4.7194 156.079 4.83865 155.538 5.11426C154.997 5.38986 154.544 5.81089 154.23 6.32994C154.23 5.88994 154.23 5.27993 154.15 5.00993H151.71C151.71 5.66993 151.71 6.51994 151.71 7.27994V13.9799H154.19V9.61993C154.19 7.85993 154.9 6.77994 156.4 6.77994C157.9 6.77994 158.25 7.77994 158.25 8.93994V14.0399H160.71V8.52994C160.71 6.17994 159.42 4.83994 157.24 4.83994L157.29 4.76993ZM187.02 3.11993H189.49V0.929932H187.02V3.11993ZM182.16 6.87993C182.16 6.28993 182.16 5.30993 182.08 5.00993H179.67C179.67 5.81993 179.67 6.63994 179.67 7.44994V13.9799H182.15V10.6199C182.15 8.02993 183.62 7.08993 185.66 7.11993V4.83994C184.92 4.76329 184.175 4.92715 183.536 5.30722C182.896 5.68729 182.396 6.26335 182.11 6.94994L182.16 6.87993ZM187.02 13.9799H189.49V4.97993H187.02V13.9799Z" fill="white"/>
</g>
<defs>
<clipPath id="clip0_224_1908">
<rect width="299" height="118" fill="white"/>
</clipPath>
</defs>
</svg>
