<?xml version="1.0" standalone="no"?>
<!DOCTYPE svg PUBLIC "-//W3C//DTD SVG 20010904//EN"
 "http://www.w3.org/TR/2001/REC-SVG-20010904/DTD/svg10.dtd">
<svg version="1.0" xmlns="http://www.w3.org/2000/svg"
 width="260.000000pt" height="260.000000pt" viewBox="0 0 260.000000 260.000000"
 preserveAspectRatio="xMidYMid meet">
<metadata>
Created by potrace 1.14, written by Peter Selinger 2001-2017
</metadata>
<g transform="translate(0.000000,260.000000) scale(0.100000,-0.100000)"
fill="#000000" stroke="none">
<path d="M1299 2596 c-1 -1 -2 -126 -3 -278 -1 -152 -4 -279 -7 -282 -3 -4
-27 -8 -53 -11 -26 -2 -59 -6 -74 -9 -15 -4 -37 -8 -48 -10 -50 -10 -178 -71
-241 -116 -188 -133 -295 -333 -302 -566 -8 -275 137 -526 379 -657 81 -44
182 -75 269 -83 36 -4 68 -9 71 -11 3 -3 5 -129 5 -281 l1 -277 89 2 c72 2
214 26 280 46 136 42 301 125 405 203 163 123 311 303 399 488 43 89 94 251
106 331 4 28 8 61 11 75 6 43 6 222 -1 280 -74 643 -592 1124 -1242 1155 -24
1 -44 1 -44 1z m179 -592 c84 -21 214 -88 283 -145 408 -340 322 -992 -162
-1212 -87 -40 -149 -57 -239 -64 l-65 -5 0 727 0 727 63 -7 c35 -3 89 -13 120
-21z"/>
<path d="M1064 2581 c-32 -6 -34 -13 -19 -61 6 -18 12 -21 37 -16 17 3 41 6
54 6 19 0 23 4 20 23 -3 12 -5 30 -5 40 -1 18 -25 20 -87 8z"/>
<path d="M702 2457 c-34 -17 -41 -25 -36 -41 13 -44 27 -48 77 -26 l47 21 -13
31 c-16 40 -23 41 -75 15z"/>
<path d="M377 2218 l-28 -31 22 -24 c13 -12 25 -23 28 -23 3 0 21 14 39 31
l33 31 -22 24 c-29 31 -38 30 -72 -8z"/>
<path d="M162 1927 c-22 -28 -43 -80 -35 -87 4 -5 20 -12 35 -15 24 -6 29 -2
48 35 23 45 23 45 -21 70 -12 7 -20 6 -27 -3z"/>
<path d="M16 1523 c-10 -61 -8 -70 18 -75 32 -6 49 5 53 34 1 13 5 33 8 46 3
14 1 22 -7 23 -7 0 -25 3 -39 5 -24 4 -27 1 -33 -33z"/>
<path d="M33 1165 c-31 -13 -31 -14 -22 -56 13 -56 16 -60 43 -49 13 5 27 6
31 2 4 -4 5 18 1 48 -3 30 -6 58 -6 63 0 10 -10 8 -47 -8z"/>
<path d="M152 778 c-18 -11 -31 -23 -29 -26 45 -100 43 -99 106 -56 2 2 -8 25
-21 52 l-25 50 -31 -20z"/>
<path d="M365 455 l-30 -25 43 -42 42 -43 27 28 28 27 -41 40 -40 41 -29 -26z"/>
<path d="M675 213 c-10 -18 -16 -35 -14 -37 9 -8 89 -46 98 -46 8 0 35 61 29
65 -2 1 -24 13 -49 27 l-46 25 -18 -34z"/>
<path d="M1046 94 c-12 -32 -7 -64 12 -65 9 0 35 -3 58 -5 l41 -5 -1 37 c-1
29 -5 38 -21 40 -11 2 -34 5 -51 9 -24 4 -33 1 -38 -11z"/>
</g>
</svg>
