<svg width="178" height="186" viewBox="0 0 178 186" fill="none" xmlns="http://www.w3.org/2000/svg">
<g clip-path="url(#clip0_98_1134)">
<path d="M104.285 129.625C98.4891 129.143 93.0578 126.378 89.1831 121.935C85.3332 117.482 83.3567 111.727 83.6861 105.929C84.0156 100.131 86.624 94.7613 90.9408 90.9959L120.101 124.503C115.77 128.264 110.082 130.106 104.285 129.625Z" fill="black"/>
<path d="M127.363 109.541C127.687 103.733 125.698 97.9724 121.833 93.5214C117.954 89.0936 112.527 86.3414 106.738 85.8672C100.95 85.3929 95.2722 87.2351 90.9469 90.9907L120.107 124.498C124.43 120.727 127.04 115.348 127.363 109.541Z" fill="black"/>
</g>
<g clip-path="url(#clip1_98_1134)">
<path d="M160.288 59.6928C157.962 59.4697 155.77 58.3295 154.194 56.5223C152.628 54.7111 151.806 52.3854 151.909 50.054C152.011 47.7226 153.03 45.5753 154.742 44.0821L166.604 57.7122C164.886 59.2036 162.615 59.9159 160.288 59.6928Z" fill="black"/>
<path d="M169.44 51.7285C169.54 49.3934 168.713 47.0653 167.141 45.2548C165.563 43.4535 163.373 42.3186 161.05 42.0985C158.727 41.8783 156.46 42.5908 154.744 44.08L166.606 57.7101C168.32 56.2147 169.339 54.0635 169.44 51.7285Z" fill="black"/>
</g>
<g clip-path="url(#clip2_98_1134)">
<path d="M19.5917 106.195C15.7781 105.861 12.198 104.024 9.63681 101.088C7.09187 98.1442 5.7753 94.3487 5.97516 90.5315C6.17503 86.7142 7.87506 83.1861 10.7033 80.7192L29.9788 102.868C27.1408 105.332 23.4052 106.528 19.5917 106.195Z" fill="black"/>
<path d="M34.7116 93.0363C34.9076 89.2131 33.5827 85.4137 31.0278 82.4716C28.4641 79.5447 24.8867 77.7167 21.0784 77.3876C17.2701 77.0585 13.5411 78.2552 10.7072 80.7157L29.9827 102.865C32.815 100.394 34.5157 96.8594 34.7116 93.0363Z" fill="black"/>
</g>
<g clip-path="url(#clip3_98_1134)">
<path d="M115.779 17.2476C113.896 17.1074 112.137 16.2252 110.889 14.7945C109.65 13.3605 109.023 11.4988 109.146 9.61675C109.269 7.73471 110.132 5.98561 111.546 4.75215L120.937 15.5426C119.518 16.7747 117.663 17.3879 115.779 17.2476Z" fill="black"/>
<path d="M123.339 10.6684C123.46 8.7835 122.829 6.91993 121.585 5.48655C120.336 4.06072 118.578 3.18276 116.697 3.0448C114.816 2.90685 112.965 3.52012 111.548 4.75043L120.939 15.5409C122.355 14.3056 123.218 12.5533 123.339 10.6684Z" fill="black"/>
</g>
<g clip-path="url(#clip4_98_1134)">
<path d="M33.1882 26.0527C31.7012 25.9419 30.3128 25.2455 29.3277 24.116C28.349 22.9839 27.854 21.5141 27.9512 20.0283C28.0484 18.5425 28.7297 17.1616 29.8461 16.1878L37.2598 24.7066C36.1395 25.6793 34.6753 26.1634 33.1882 26.0527Z" fill="black"/>
<path d="M39.1566 20.8585C39.2523 19.3705 38.7542 17.8992 37.7715 16.7676C36.7854 15.6419 35.398 14.9488 33.913 14.8399C32.428 14.731 30.9663 15.2152 29.8477 16.1864L37.2613 24.7052C38.3794 23.73 39.061 22.3466 39.1566 20.8585Z" fill="black"/>
</g>
<g clip-path="url(#clip5_98_1134)">
<path d="M104.778 182.794C103.291 182.683 101.903 181.987 100.918 180.857C99.9388 179.725 99.4439 178.255 99.541 176.769C99.6382 175.284 100.32 173.903 101.436 172.929L108.85 181.448C107.729 182.421 106.265 182.905 104.778 182.794Z" fill="black"/>
<path d="M110.746 177.6C110.842 176.112 110.344 174.64 109.361 173.509C108.375 172.383 106.988 171.69 105.503 171.581C104.018 171.472 102.556 171.956 101.438 172.928L108.851 181.446C109.969 180.471 110.651 179.088 110.746 177.6Z" fill="black"/>
</g>
<g clip-path="url(#clip6_98_1134)">
<path d="M172.397 149.403C171.552 149.39 170.782 149.044 170.256 148.442C169.734 147.838 169.5 147.028 169.605 146.19C169.709 145.352 170.144 144.553 170.814 143.969L174.768 148.512C174.096 149.096 173.243 149.416 172.397 149.403Z" fill="black"/>
<path d="M175.979 146.287C176.082 145.447 175.846 144.637 175.322 144.033C174.796 143.433 174.026 143.089 173.182 143.077C172.337 143.065 171.486 143.385 170.815 143.968L174.769 148.511C175.44 147.926 175.875 147.126 175.979 146.287Z" fill="black"/>
</g>
<g clip-path="url(#clip7_98_1134)">
<path d="M33.1224 177.884C32.0325 177.867 31.0401 177.422 30.363 176.646C29.6907 175.867 29.3889 174.824 29.5236 173.744C29.6584 172.663 30.2186 171.634 31.0819 170.882L36.1768 176.736C35.3108 177.488 34.2124 177.901 33.1224 177.884Z" fill="black"/>
<path d="M37.7369 173.868C37.8706 172.786 37.5665 171.742 36.8913 170.964C36.2132 170.191 35.2215 169.748 34.133 169.732C33.0445 169.717 31.9478 170.129 31.0831 170.88L36.1781 176.735C37.0426 175.981 37.6032 174.95 37.7369 173.868Z" fill="black"/>
</g>
<defs>
<clipPath id="clip0_98_1134">
<rect width="43.7067" height="44.4602" fill="white" transform="translate(74.6035 105.182) rotate(-41.0321)"/>
</clipPath>
<clipPath id="clip1_98_1134">
<rect width="17.332" height="18.0855" fill="white" transform="translate(148.264 49.707) rotate(-41.0321)"/>
</clipPath>
<clipPath id="clip2_98_1134">
<rect width="28.6354" height="29.389" fill="white" transform="translate(0 90.0127) rotate(-41.0321)"/>
</clipPath>
<clipPath id="clip3_98_1134">
<rect width="14.3177" height="14.3177" fill="white" transform="translate(106.193 9.39941) rotate(-41.0321)"/>
</clipPath>
<clipPath id="clip4_98_1134">
<rect width="11.3034" height="11.3034" fill="white" transform="translate(25.6211 19.8564) rotate(-41.0321)"/>
</clipPath>
<clipPath id="clip5_98_1134">
<rect width="11.3034" height="11.3034" fill="white" transform="translate(97.2109 176.598) rotate(-41.0321)"/>
</clipPath>
<clipPath id="clip6_98_1134">
<rect width="6.78207" height="6.02851" fill="white" transform="translate(168.279 146.17) rotate(-41.0321)"/>
</clipPath>
<clipPath id="clip7_98_1134">
<rect width="8.73919" height="7.76817" fill="white" transform="translate(27.8164 173.719) rotate(-41.0321)"/>
</clipPath>
</defs>
</svg>
